<svg width="820" height="240" xmlns="http://www.w3.org/2000/svg" version="1.1" enable-background="new 0 0 820 240" xml:space="preserve">
 <defs>
  <linearGradient id="SVGID_1_" x1="0.1804" y1="-0.59196" x2="0.8196" y2="1.59196">
   <stop offset="0" stop-color="#53F6C6"/>
   <stop offset="1" stop-color="#551C86"/>
  </linearGradient>
 </defs>
 <g>
  <title>Layer 1</title>
  <g id="svg_1">
   <path fill="url(#SVGID_1_)" d="m0,10c0,-5.523 4.477,-10 10,-10l800,0c5.523,0 10,4.477 10,10l0,220c0,5.523 -4.477,10 -10,10l-800,0c-5.523,0 -10,-4.477 -10,-10l0,-220z" id="svg_2"/>
   <g id="svg_3">
    <g id="svg_4">
     <g id="svg_5">
      <path fill="#FFFFFF" d="m206.337,116.304c4.946,2.101 7.42,5.997 7.42,11.69c0,4.294 -1.424,7.606 -4.27,9.939c-2.847,2.334 -6.557,3.5 -11.13,3.5l-17.43,0c-0.467,0 -0.7,-0.232 -0.7,-0.7l0,-47.598c0,-0.466 0.233,-0.7 0.7,-0.7l16.87,0c4.853,0 8.621,1.109 11.305,3.325c2.683,2.217 4.025,5.449 4.025,9.695c0,5.04 -2.264,8.517 -6.79,10.43c-0.234,0.139 -0.234,0.279 0,0.419zm-19.39,-17.78l0,14.771c0,0.187 0.093,0.28 0.28,0.28l10.57,0c2.706,0 4.841,-0.677 6.405,-2.03c1.563,-1.354 2.345,-3.196 2.345,-5.53c0,-2.38 -0.782,-4.27 -2.345,-5.67c-1.564,-1.4 -3.699,-2.1 -6.405,-2.1l-10.57,0c-0.187,0 -0.28,0.093 -0.28,0.279zm17.745,34.825c1.563,-1.47 2.345,-3.465 2.345,-5.984c0,-2.521 -0.794,-4.516 -2.38,-5.985c-1.587,-1.47 -3.757,-2.205 -6.51,-2.205l-10.92,0c-0.188,0 -0.28,0.094 -0.28,0.28l0,15.819c0,0.188 0.093,0.28 0.28,0.28l11.13,0c2.66,0 4.771,-0.735 6.335,-2.205z" id="svg_6"/>
      <path fill="#FFFFFF" d="m231.642,139.999c-2.59,-1.33 -4.609,-3.22 -6.055,-5.67c-1.447,-2.45 -2.17,-5.261 -2.17,-8.436l0,-32.758c0,-0.466 0.233,-0.7 0.7,-0.7l5.32,0c0.466,0 0.7,0.234 0.7,0.7l0,32.9c0,3.034 0.968,5.483 2.905,7.35c1.936,1.867 4.468,2.8 7.595,2.8c3.125,0 5.646,-0.933 7.56,-2.8c1.913,-1.866 2.87,-4.315 2.87,-7.35l0,-32.9c0,-0.466 0.233,-0.7 0.7,-0.7l5.32,0c0.466,0 0.7,0.234 0.7,0.7l0,32.759c0,3.175 -0.712,5.985 -2.135,8.436c-1.424,2.45 -3.43,4.34 -6.02,5.67c-2.59,1.33 -5.589,1.995 -8.995,1.995c-3.407,0 -6.405,-0.666 -8.995,-1.996z" id="svg_7"/>
      <path fill="#FFFFFF" d="m280.116,140.664l0,-19.67c0,-0.187 -0.024,-0.304 -0.07,-0.351l-14.56,-27.37c-0.047,-0.093 -0.07,-0.21 -0.07,-0.35c0,-0.326 0.186,-0.49 0.56,-0.49l5.74,0c0.42,0 0.7,0.164 0.84,0.49l10.71,20.509c0.046,0.095 0.116,0.141 0.21,0.141c0.093,0 0.163,-0.046 0.21,-0.141l10.71,-20.509c0.14,-0.326 0.42,-0.49 0.84,-0.49l5.81,0c0.233,0 0.408,0.082 0.525,0.245c0.116,0.164 0.105,0.362 -0.035,0.595l-14.63,27.37c-0.047,0.047 -0.07,0.164 -0.07,0.351l0,19.67c0,0.467 -0.234,0.7 -0.7,0.7l-5.32,0c-0.467,0.001 -0.7,-0.233 -0.7,-0.7z" id="svg_8"/>
      <path fill="#FFFFFF" d="m355.505,99.245l-24.78,0c-0.188,0 -0.28,0.094 -0.28,0.279l0,15.051c0,0.187 0.093,0.279 0.28,0.279l17.01,0c0.466,0 0.7,0.234 0.7,0.7l0,4.41c0,0.467 -0.234,0.7 -0.7,0.7l-17.01,0c-0.188,0 -0.28,0.094 -0.28,0.279l0,20.79c0,0.468 -0.234,0.7 -0.7,0.7l-5.32,0c-0.467,0 -0.7,-0.232 -0.7,-0.7l0,-47.598c0,-0.466 0.233,-0.7 0.7,-0.7l31.08,0c0.466,0 0.7,0.234 0.7,0.7l0,4.41c0.001,0.467 -0.234,0.7 -0.7,0.7z" id="svg_9"/>
      <path fill="#FFFFFF" d="m363.275,141.734l0,-47.599c0,-0.466 0.233,-0.7 0.7,-0.7l5.32,0c0.466,0 0.7,0.234 0.7,0.7l0,47.599c0,0.468 -0.234,0.7 -0.7,0.7l-5.32,0c-0.467,0.001 -0.7,-0.232 -0.7,-0.7z" id="svg_10"/>
      <path fill="#FFFFFF" d="m388.299,139.999c-2.59,-1.33 -4.597,-3.22 -6.02,-5.67c-1.424,-2.45 -2.135,-5.261 -2.135,-8.436l0,-17.92c0,-3.22 0.711,-6.043 2.135,-8.47c1.423,-2.426 3.43,-4.305 6.02,-5.635s5.565,-1.995 8.925,-1.995c3.36,0 6.323,0.654 8.89,1.96c2.566,1.307 4.561,3.115 5.985,5.425c1.423,2.31 2.135,4.912 2.135,7.805l0,0.771c0,0.467 -0.234,0.7 -0.7,0.7l-5.32,0c-0.467,0 -0.7,-0.233 -0.7,-0.7l0,-0.63c0,-2.8 -0.945,-5.075 -2.835,-6.825c-1.89,-1.75 -4.375,-2.625 -7.455,-2.625c-3.127,0 -5.635,0.91 -7.525,2.729c-1.89,1.82 -2.835,4.247 -2.835,7.28l0,18.34c0,3.034 0.98,5.46 2.94,7.28s4.526,2.73 7.7,2.73c3.08,0 5.518,-0.806 7.315,-2.415c1.796,-1.61 2.695,-3.815 2.695,-6.615l0,-5.391c0,-0.186 -0.094,-0.279 -0.28,-0.279l-9.45,0c-0.467,0 -0.7,-0.233 -0.7,-0.7l0,-4.34c0,-0.466 0.233,-0.7 0.7,-0.7l15.75,0c0.466,0 0.7,0.234 0.7,0.7l0,8.89c0,5.367 -1.529,9.497 -4.585,12.391c-3.057,2.894 -7.199,4.34 -12.425,4.34c-3.36,0.001 -6.335,-0.665 -8.925,-1.995z" id="svg_11"/>
      <path fill="#FFFFFF" d="m470.233,93.135l0,4.48c0,0.467 -0.234,0.699 -0.7,0.699l-13.44,0c-0.187,0 -0.279,0.095 -0.279,0.28l0,42.14c0,0.468 -0.234,0.7 -0.7,0.7l-5.32,0c-0.467,0 -0.7,-0.232 -0.7,-0.7l0,-42.14c0,-0.186 -0.094,-0.28 -0.279,-0.28l-12.811,0c-0.467,0 -0.699,-0.232 -0.699,-0.699l0,-4.48c0,-0.466 0.232,-0.7 0.699,-0.7l33.53,0c0.465,-0.001 0.699,0.233 0.699,0.7z" id="svg_12"/>
      <path fill="#FFFFFF" d="m482.624,139.964c-2.614,-1.4 -4.644,-3.371 -6.09,-5.915c-1.447,-2.543 -2.17,-5.471 -2.17,-8.785l0,-16.66c0,-3.313 0.723,-6.229 2.17,-8.75c1.446,-2.52 3.476,-4.479 6.09,-5.88c2.613,-1.399 5.623,-2.1 9.03,-2.1c3.453,0 6.485,0.7 9.1,2.1c2.613,1.4 4.644,3.36 6.09,5.88c1.446,2.521 2.17,5.438 2.17,8.75l0,16.66c0,3.314 -0.724,6.242 -2.17,8.785c-1.446,2.544 -3.477,4.515 -6.09,5.915c-2.614,1.4 -5.646,2.1 -9.1,2.1c-3.407,0 -6.417,-0.699 -9.03,-2.1zm16.73,-6.65c1.96,-1.96 2.939,-4.55 2.939,-7.77l0,-17.01c0,-3.267 -0.979,-5.892 -2.939,-7.875s-4.527,-2.976 -7.7,-2.976c-3.174,0 -5.729,0.992 -7.665,2.976c-1.938,1.983 -2.905,4.608 -2.905,7.875l0,17.01c0,3.22 0.968,5.81 2.905,7.77c1.936,1.96 4.491,2.94 7.665,2.94c3.173,0 5.741,-0.98 7.7,-2.94z" id="svg_13"/>
      <path fill="#FFFFFF" d="m519.233,140.734l0,-47.599c0,-0.466 0.232,-0.7 0.7,-0.7l5.319,0c0.466,0 0.7,0.234 0.7,0.7l0,22.33c0,0.094 0.046,0.152 0.14,0.175c0.094,0.024 0.163,-0.011 0.21,-0.104l20.021,-22.68c0.186,-0.28 0.466,-0.42 0.84,-0.42l6.09,0c0.28,0 0.466,0.082 0.561,0.245c0.093,0.164 0.046,0.362 -0.141,0.595l-16.66,19.669c-0.047,0.141 -0.047,0.28 0,0.421l17.851,27.229c0.093,0.188 0.14,0.327 0.14,0.42c0,0.28 -0.187,0.42 -0.56,0.42l-6.09,0c-0.327,0 -0.607,-0.14 -0.841,-0.42l-15.119,-22.89c-0.048,-0.093 -0.117,-0.141 -0.21,-0.141c-0.095,0 -0.164,0.024 -0.21,0.07l-5.881,6.58c-0.094,0.188 -0.14,0.304 -0.14,0.35l0,15.75c0,0.468 -0.234,0.7 -0.7,0.7l-5.319,0c-0.468,0 -0.701,-0.232 -0.701,-0.7z" id="svg_14"/>
      <path fill="#FFFFFF" d="m594.203,98.245l-24.85,0c-0.188,0 -0.28,0.094 -0.28,0.279l0,15.051c0,0.187 0.093,0.279 0.28,0.279l17.08,0c0.466,0 0.699,0.234 0.699,0.7l0,4.41c0,0.467 -0.233,0.7 -0.699,0.7l-17.08,0c-0.188,0 -0.28,0.094 -0.28,0.279l0,15.4c0,0.188 0.093,0.28 0.28,0.28l24.85,0c0.466,0 0.7,0.233 0.7,0.7l0,4.409c0,0.468 -0.234,0.7 -0.7,0.7l-31.149,0c-0.468,0 -0.7,-0.232 -0.7,-0.7l0,-47.597c0,-0.466 0.232,-0.7 0.7,-0.7l31.149,0c0.466,0 0.7,0.234 0.7,0.7l0,4.41c0,0.466 -0.234,0.7 -0.7,0.7z" id="svg_15"/>
      <path fill="#FFFFFF" d="m633.753,92.434l5.319,0c0.467,0 0.7,0.234 0.7,0.7l0,47.599c0,0.468 -0.233,0.7 -0.7,0.7l-5.109,0c-0.327,0 -0.607,-0.163 -0.84,-0.49l-21.91,-35.77c-0.047,-0.14 -0.117,-0.198 -0.21,-0.175c-0.095,0.023 -0.141,0.104 -0.141,0.245l0.07,35.489c0,0.468 -0.234,0.7 -0.7,0.7l-5.319,0c-0.468,0 -0.7,-0.232 -0.7,-0.7l0,-47.597c0,-0.466 0.232,-0.7 0.7,-0.7l5.18,0c0.326,0 0.605,0.164 0.84,0.49l21.84,35.769c0.046,0.141 0.116,0.199 0.21,0.176c0.093,-0.023 0.141,-0.105 0.141,-0.245l-0.07,-35.49c-0.001,-0.467 0.231,-0.701 0.699,-0.701z" id="svg_16"/>
     </g>
    </g>
   </g>
  </g>
  <rect stroke="#000" id="svg_18" height="240" width="818" y="0" x="2" fill="#559E84"/>
  <text xml:space="preserve" text-anchor="start" font-family="'Asap'" font-size="70" id="svg_17" y="142" x="170" stroke-width="0" stroke="#000" fill="#ffffff">BUY G27 TOKEN</text>
 </g>
</svg>