<?xml version="1.0" standalone="no"?>
<!DOCTYPE svg PUBLIC "-//W3C//DTD SVG 20010904//EN"
 "http://www.w3.org/TR/2001/REC-SVG-20010904/DTD/svg10.dtd">
<svg version="1.0" xmlns="http://www.w3.org/2000/svg"
 width="3417.000000pt" height="1000.000000pt" viewBox="0 0 3417.000000 1000.000000"
 preserveAspectRatio="xMidYMid meet">

<g transform="translate(0.000000,1000.000000) scale(0.100000,-0.100000)"
fill="#000000" stroke="none">
<path d="M23501 9992 c-6 -2 -11 -8 -11 -13 0 -6 5 -7 10 -4 6 3 10 1 10 -4 0
-6 5 -11 11 -11 5 0 7 5 4 10 -4 6 5 10 19 10 14 0 26 3 26 8 0 7 -49 11 -69
4z"/>
<path d="M23576 9984 c-3 -9 -3 -21 1 -27 3 -7 3 -9 -2 -5 -4 4 -15 2 -24 -5
-14 -11 -14 -10 -2 6 19 24 -2 22 -24 -3 -14 -15 -21 -17 -32 -9 -7 6 -13 19
-13 28 -1 14 -2 14 -11 -2 -8 -13 -14 -15 -29 -7 -13 7 -21 7 -26 -2 -4 -7 -3
-8 4 -4 8 4 12 0 12 -11 0 -14 2 -15 9 -5 4 8 12 14 16 14 4 0 11 -6 16 -14 5
-7 12 -13 16 -13 5 0 19 -10 31 -21 17 -16 20 -24 11 -29 -8 -5 -10 -4 -5 3 4
7 2 12 -3 12 -18 0 -13 -28 7 -39 9 -6 12 -11 5 -11 -6 0 -18 9 -26 21 -9 13
-17 16 -22 10 -3 -6 -2 -11 3 -11 6 0 13 -8 16 -17 4 -10 4 -14 0 -10 -4 4
-13 2 -21 -5 -11 -9 -12 -7 -6 8 6 16 5 17 -9 4 -11 -11 -13 -19 -6 -27 13
-17 -13 -18 -29 -2 -8 8 -13 7 -18 -2 -5 -7 -4 -10 2 -6 5 3 18 -4 28 -15 l18
-21 14 27 c13 26 33 28 33 3 0 -7 -4 -6 -10 3 -8 12 -10 12 -10 -5 0 -11 -9
-26 -21 -33 -12 -8 -18 -9 -14 -3 3 6 1 11 -4 11 -10 0 -15 -17 -14 -47 1 -7
-3 -11 -7 -8 -5 3 -11 1 -15 -4 -3 -6 -13 -7 -23 -4 -15 6 -15 5 -3 -10 12
-15 11 -17 -4 -17 -14 0 -15 -3 -6 -14 7 -8 8 -16 4 -18 -4 -3 -2 -3 5 -2 6 2
12 -1 12 -6 0 -6 6 -9 12 -7 7 1 14 -8 16 -21 2 -13 8 -20 14 -16 7 4 8 2 4
-4 -4 -7 -1 -12 7 -12 7 0 14 -7 14 -15 0 -8 -6 -15 -14 -15 -7 0 -12 3 -12 8
3 19 -2 23 -15 13 -12 -10 -14 -8 -10 11 5 20 3 20 -11 -5 -9 -15 -20 -25 -24
-22 -5 3 -12 -2 -15 -11 -5 -12 -2 -15 13 -11 15 3 17 0 13 -16 -3 -13 -1 -18
6 -13 6 3 15 -2 21 -12 7 -14 6 -18 -9 -19 -12 -1 -20 7 -24 23 -4 13 -14 24
-22 24 -11 0 -14 -4 -8 -12 13 -18 11 -53 -3 -53 -18 0 -26 -12 -30 -46 -2
-18 1 -28 7 -24 6 3 13 -1 16 -9 3 -9 10 -13 16 -10 5 4 5 10 -1 17 -13 17 12
38 30 26 11 -7 10 -9 -5 -9 -12 0 -16 -5 -13 -14 3 -8 -1 -20 -8 -26 -8 -7
-12 -17 -9 -22 3 -5 -3 -4 -15 4 -12 7 -21 18 -21 25 0 7 -5 13 -11 13 -5 0
-7 5 -4 10 3 6 -2 10 -11 10 -13 0 -15 -3 -7 -11 6 -6 10 -17 9 -23 -2 -6 -1
-7 2 -3 6 11 31 -25 32 -45 0 -11 -5 -15 -15 -12 -8 3 -13 10 -12 16 1 6 -6
12 -15 13 -15 3 -16 0 -8 -16 6 -10 17 -19 24 -19 8 0 20 -8 27 -17 11 -13 11
-15 1 -9 -9 5 -15 1 -19 -13 -3 -12 -9 -21 -14 -21 -5 0 -9 -4 -9 -10 0 -6 5
-9 11 -8 6 2 13 -3 15 -10 1 -7 0 -8 -3 -2 -2 6 -12 1 -22 -11 -19 -24 -61
-19 -61 7 0 8 -4 12 -10 9 -5 -3 -10 -10 -10 -14 0 -12 52 -35 75 -33 14 1 16
0 5 -5 -8 -3 -21 -13 -28 -22 -11 -14 -11 -14 -6 2 3 9 3 17 0 17 -9 0 -30
-53 -27 -69 2 -12 0 -13 -12 -2 -11 9 -17 9 -22 1 -4 -6 -4 -14 -1 -17 3 -4 6
-1 6 6 0 7 5 9 10 6 13 -8 3 -25 -15 -25 -7 0 -21 7 -29 16 -9 8 -16 11 -16 5
0 -14 33 -31 59 -31 20 0 25 11 24 48 -1 7 2 11 5 8 3 -3 14 1 24 11 17 15 18
15 18 0 0 -10 -6 -17 -14 -17 -16 0 -31 -34 -21 -50 4 -6 11 -8 16 -5 5 4 9 0
9 -8 0 -7 -7 -14 -15 -14 -8 0 -15 4 -15 9 0 14 -22 9 -43 -9 -19 -17 -20 -17
-14 0 4 9 4 17 1 17 -7 0 -27 -53 -25 -67 1 -6 -3 -14 -9 -18 -13 -8 -13 -25
0 -25 6 0 10 7 10 16 0 8 4 12 10 9 5 -3 8 0 5 7 -6 16 43 71 56 63 12 -8 12
-35 0 -35 -5 0 -12 6 -14 13 -4 7 -6 6 -6 -5 -1 -9 -7 -19 -13 -22 -7 -3 0 -3
16 -1 16 2 26 1 22 -2 -3 -4 2 -15 11 -26 10 -11 12 -17 6 -13 -7 4 -13 4 -13
-1 0 -4 -14 -14 -32 -22 -24 -11 -33 -11 -36 -3 -6 19 -30 14 -46 -10 -15 -21
-16 -21 -17 -3 0 20 -1 20 -8 0 -11 -28 6 -32 30 -6 17 18 23 19 39 8 25 -15
26 -27 1 -27 -11 0 -26 -3 -34 -6 -14 -5 -13 -8 1 -25 9 -10 21 -19 26 -19 5
0 2 8 -7 18 -15 17 -14 18 11 19 15 0 19 -1 9 -4 -18 -5 -18 -5 0 -26 10 -11
12 -17 4 -12 -9 5 -12 3 -9 -5 7 -21 26 -23 30 -3 3 15 5 14 10 -5 3 -12 2
-20 -2 -17 -5 3 -11 1 -15 -5 -3 -5 -1 -10 6 -10 7 0 9 -3 6 -6 -4 -4 -12 -3
-19 3 -7 5 -24 9 -38 8 -14 -1 -34 3 -45 7 -17 8 -18 7 -4 -4 8 -7 18 -21 22
-30 3 -10 12 -18 18 -18 8 0 8 4 -1 15 -7 9 -10 18 -7 22 4 3 9 -2 13 -11 3
-9 10 -14 14 -11 9 5 -3 -46 -14 -64 -3 -5 2 -8 11 -7 9 0 18 -6 20 -14 4 -13
3 -13 -6 0 -9 13 -11 11 -11 -6 0 -12 -11 -29 -25 -38 -21 -14 -24 -14 -19 -1
4 8 12 15 19 15 7 0 12 7 11 15 -1 9 -6 14 -12 13 -5 -2 -8 -6 -7 -10 2 -4 -3
-5 -11 -2 -8 3 -16 -4 -20 -18 -9 -35 -7 -50 6 -42 7 4 8 3 4 -5 -4 -6 -11 -9
-16 -6 -4 3 -10 -1 -13 -8 -3 -7 5 -13 19 -13 22 -2 29 6 25 29 -2 11 17 9 24
-3 4 -6 2 -17 -4 -24 -6 -7 -8 -15 -5 -18 3 -3 -3 -5 -13 -5 -10 1 -22 7 -26
12 -5 6 -7 3 -3 -7 3 -11 -6 -26 -26 -43 -25 -21 -28 -28 -18 -38 10 -9 11 -9
6 0 -3 6 -2 14 3 17 13 9 23 -25 11 -39 -5 -6 -7 -15 -3 -19 4 -4 -5 -5 -20
-2 -15 3 -25 1 -22 -4 3 -5 -9 -22 -26 -38 -24 -22 -29 -31 -19 -37 8 -5 11
-4 7 2 -18 30 49 39 77 11 19 -20 21 -35 2 -19 -7 6 -22 8 -31 4 -13 -4 -16
-3 -11 5 4 7 1 12 -8 12 -9 0 -13 -6 -10 -14 3 -8 0 -17 -5 -21 -6 -3 -9 -11
-5 -16 3 -6 -5 -8 -20 -5 -16 3 -24 1 -20 -5 3 -5 -5 -19 -18 -30 -23 -20 -23
-20 9 0 32 21 59 26 87 15 31 -12 12 -44 -26 -44 -6 0 -8 3 -4 8 4 4 12 7 17
7 5 0 9 3 9 8 0 4 0 9 0 12 0 3 -9 1 -20 -5 -22 -12 -27 -36 -7 -43 8 -4 9 -8
2 -14 -6 -4 -10 -18 -9 -30 1 -13 -3 -20 -9 -16 -6 4 -8 0 -4 -9 3 -9 0 -21
-6 -27 -14 -14 -50 -15 -42 -1 4 6 12 7 18 4 9 -5 9 -4 0 6 -6 7 -16 9 -22 6
-14 -9 -14 -36 0 -36 6 0 8 -10 5 -22 -3 -13 -3 -17 0 -10 3 6 10 10 14 7 5
-3 12 0 16 6 5 8 3 9 -7 4 -11 -6 -12 -5 -2 5 18 19 27 6 14 -19 -9 -15 -8
-22 3 -28 8 -4 16 -12 18 -18 2 -5 7 -8 13 -7 5 2 6 0 2 -4 -12 -12 -37 -14
-37 -3 0 6 -4 8 -9 4 -6 -3 -8 4 -6 15 3 15 -1 20 -16 20 -13 0 -18 -4 -13
-12 4 -8 3 -10 -2 -5 -5 5 -9 21 -9 35 0 21 -4 26 -19 24 -11 -2 -15 1 -11 7
3 6 1 11 -4 11 -6 0 -11 -9 -11 -21 0 -11 5 -17 10 -14 15 9 30 -3 24 -19 -3
-8 -15 -12 -27 -10 -21 4 -21 4 -2 -5 11 -4 23 -7 26 -5 3 2 11 -8 18 -22 8
-19 16 -24 29 -19 13 5 14 4 5 -6 -10 -10 -16 -9 -28 1 -11 9 -19 10 -27 2
-12 -12 -41 -4 -32 9 3 5 11 6 17 3 9 -5 9 -4 0 6 -6 7 -16 9 -22 6 -17 -11
-13 -36 5 -36 13 0 14 -3 5 -14 -10 -12 -9 -14 6 -11 10 1 17 8 15 14 -1 6 3
11 9 11 6 0 9 -7 5 -15 -3 -8 -3 -22 0 -30 5 -12 9 -12 30 2 15 9 24 11 24 4
0 -6 -8 -11 -17 -11 -16 0 -16 -2 -3 -11 13 -8 13 -9 -2 -7 -9 2 -17 -1 -16
-7 0 -5 5 -9 12 -7 8 3 8 0 -1 -9 -6 -6 -9 -19 -5 -28 5 -13 3 -13 -12 2 -14
14 -21 15 -32 6 -11 -9 -18 -8 -29 1 -13 11 -18 11 -28 0 -10 -10 -9 -12 5 -7
12 4 15 2 11 -8 -3 -8 -9 -12 -15 -9 -5 3 -3 -7 5 -22 8 -16 13 -37 12 -47 -2
-11 1 -14 8 -10 37 23 46 -8 11 -35 -19 -14 -18 -14 2 -10 19 5 20 3 10 -18
-8 -18 -12 -20 -14 -8 -2 9 -10 13 -18 10 -17 -7 -18 6 -2 22 10 10 10 15 -2
22 -9 6 -17 5 -21 -1 -7 -12 -40 -8 -52 6 -5 6 -7 4 -5 -5 3 -8 14 -17 26 -20
22 -5 22 -5 2 -18 -15 -9 -20 -9 -20 0 0 6 -2 9 -5 6 -8 -8 16 -58 27 -58 5 0
6 -5 3 -10 -4 -6 -12 -7 -18 -3 -7 3 -3 -3 7 -15 22 -25 12 -30 -12 -6 -15 15
-17 15 -26 -5 -7 -15 -6 -25 3 -34 11 -10 12 -7 6 13 -3 14 -3 20 2 14 4 -6
20 -10 36 -10 32 2 32 3 10 -31 -23 -35 -27 -64 -9 -57 8 3 12 12 9 20 -3 8 0
14 6 14 6 0 11 -7 11 -15 0 -8 6 -15 13 -15 9 0 9 -2 -1 -9 -19 -11 -63 -5
-73 11 -7 10 -9 9 -9 -4 0 -10 -4 -18 -10 -18 -21 0 -9 29 17 42 28 13 47 54
21 46 -7 -3 -13 -10 -13 -17 0 -19 -28 -31 -42 -19 -10 8 -10 14 -2 24 7 9 8
14 1 14 -17 0 -22 -29 -7 -44 13 -12 13 -16 0 -26 -8 -6 -18 -9 -24 -6 -13 9
-21 -19 -9 -35 8 -11 9 -11 5 3 -7 21 24 29 48 12 10 -7 22 -11 26 -8 5 3 9
-2 9 -11 0 -11 -5 -15 -15 -12 -8 4 -17 1 -21 -5 -4 -6 -3 -8 4 -5 6 5 6 -1
-1 -17 -7 -14 -15 -20 -18 -14 -4 7 -9 7 -13 -1 -4 -6 -5 -15 -2 -20 3 -5 -1
-11 -9 -15 -8 -3 -15 -10 -15 -16 0 -6 5 -8 10 -5 19 12 10 -18 -12 -37 -16
-14 -19 -21 -10 -30 9 -9 12 -8 12 4 0 9 5 20 12 24 8 5 9 2 5 -10 -6 -14 -3
-17 9 -12 13 5 14 4 6 -7 -7 -8 -10 -17 -7 -20 3 -4 2 -5 -1 -2 -11 7 -45 -15
-39 -25 3 -6 -1 -7 -10 -4 -12 5 -13 10 -4 20 11 14 5 34 -12 34 -5 0 -9 -5
-9 -11 0 -5 6 -7 13 -4 6 3 2 -2 -10 -11 -13 -9 -23 -22 -23 -28 0 -6 5 -4 10
4 8 12 10 11 10 -7 0 -13 -5 -23 -12 -23 -6 0 -8 -3 -4 -7 4 -5 14 1 22 11 13
18 14 18 14 2 0 -9 4 -15 9 -12 5 3 11 -5 13 -19 3 -14 1 -25 -3 -25 -5 0 -9
-7 -9 -16 0 -14 3 -15 18 -3 9 7 14 9 10 5 -4 -5 0 -15 10 -23 9 -8 11 -12 4
-8 -7 3 -23 8 -36 11 -20 3 -23 1 -19 -16 6 -22 -7 -26 -25 -8 -13 13 -16 29
-4 26 4 -2 8 0 10 5 1 4 0 7 -3 7 -3 0 -9 0 -15 0 -5 0 -10 -7 -10 -15 0 -8
-4 -15 -10 -15 -5 0 -10 -8 -9 -17 0 -11 3 -13 6 -5 9 23 23 12 17 -13 -5 -21
-3 -25 12 -22 11 1 26 7 34 12 13 8 13 6 2 -8 -18 -21 -6 -39 21 -32 15 4 12
0 -8 -12 -16 -9 -34 -16 -40 -15 -5 1 -1 -5 9 -13 11 -8 14 -15 7 -15 -7 0 -9
-5 -5 -12 4 -7 3 -8 -5 -4 -6 4 -9 12 -6 17 4 5 -1 9 -10 9 -9 0 -13 -4 -10
-10 3 -5 1 -10 -5 -10 -6 0 -8 -4 -5 -10 3 -5 1 -10 -4 -10 -14 0 -14 6 4 40
10 19 23 30 36 30 17 0 18 2 7 13 -15 16 -48 18 -45 4 1 -5 -4 -12 -11 -14
-11 -4 -12 -1 -3 15 15 28 14 42 -4 42 -8 0 -15 -5 -15 -11 0 -5 6 -7 13 -3 9
6 9 5 0 -8 -7 -8 -10 -18 -6 -21 3 -4 -1 -7 -10 -7 -9 0 -18 -4 -21 -9 -4 -5
3 -7 14 -4 24 6 40 -25 19 -38 -8 -5 -9 -9 -4 -9 6 0 3 -4 -5 -10 -9 -6 -17
-5 -22 3 -5 8 -8 6 -8 -6 0 -13 5 -16 24 -11 21 5 25 2 23 -15 -1 -22 -17 -30
-17 -8 0 9 -3 8 -9 -2 -7 -11 -13 -8 -26 13 -18 27 -27 27 -31 2 -1 -7 4 -13
11 -12 8 0 14 -3 14 -9 0 -5 -6 -9 -13 -9 -10 1 -10 -4 -2 -22 12 -25 28 -22
24 4 -2 13 3 16 20 14 13 -2 30 2 37 8 8 7 20 10 27 8 8 -3 0 -12 -18 -21 -17
-9 -35 -13 -39 -9 -5 4 -5 2 -1 -5 3 -6 -4 -19 -16 -27 -12 -9 -19 -16 -14
-16 5 0 1 -9 -9 -20 -18 -20 -15 -24 17 -21 12 2 15 -4 11 -19 -3 -13 0 -20 8
-20 12 0 12 -2 1 -9 -8 -4 -13 -11 -13 -15 4 -27 -1 -56 -9 -56 -5 0 -7 7 -3
16 3 9 0 20 -8 25 -11 7 -9 9 6 9 17 0 17 2 5 10 -9 6 -11 10 -3 10 7 0 10 7
7 15 -4 11 -11 12 -24 5 -9 -5 -19 -7 -22 -5 -3 3 -5 -1 -5 -9 0 -8 6 -12 15
-8 10 3 13 1 8 -7 -4 -6 -2 -19 5 -27 11 -14 10 -15 -6 -13 -11 2 -30 -2 -41
-9 -12 -6 -25 -8 -29 -4 -5 4 -5 2 -1 -5 5 -9 14 -9 33 -2 22 8 24 8 14 -5
-10 -11 -9 -19 1 -35 7 -12 16 -21 20 -21 5 0 8 -5 8 -11 0 -6 -5 -7 -12 -2
-28 17 -33 9 -32 -44 1 -30 -2 -50 -6 -44 -4 8 -14 5 -32 -8 -14 -11 -28 -18
-30 -15 -3 2 -3 -7 -1 -21 3 -13 9 -22 14 -19 5 3 7 9 5 13 -6 10 11 37 19 29
4 -3 2 -15 -4 -26 -7 -13 -7 -22 0 -29 7 -7 7 -13 1 -17 -6 -3 -13 -2 -17 4
-3 5 -11 10 -16 10 -6 0 -8 -4 -4 -9 3 -5 -8 -19 -25 -31 -16 -12 -30 -26 -30
-33 0 -6 7 -2 16 9 15 19 15 19 11 -2 -4 -17 -1 -20 14 -17 11 3 19 12 19 20
0 8 4 12 9 9 5 -3 7 -14 4 -25 -3 -13 5 -26 27 -41 41 -29 60 -75 60 -143 0
-61 -21 -107 -94 -208 -25 -34 -43 -67 -39 -72 3 -6 1 -7 -4 -4 -11 7 -46 -39
-46 -60 0 -7 -4 -13 -9 -13 -9 0 -17 -7 -51 -47 -17 -19 -17 -22 -2 -37 15
-15 15 -16 -5 -16 -13 0 -19 4 -14 12 5 7 3 8 -6 3 -10 -6 -9 -11 6 -22 18
-14 18 -14 -4 -11 -17 2 -28 -5 -40 -27 -9 -16 -25 -38 -34 -49 -23 -26 -23
-31 4 -33 13 -1 18 1 11 5 -7 4 -9 13 -5 19 5 8 10 7 19 -2 15 -16 0 -31 -37
-37 -14 -1 -25 -9 -25 -16 0 -7 -5 -16 -11 -20 -14 -9 -10 -40 8 -55 32 -27
39 -44 24 -56 -11 -9 -14 -9 -13 1 1 34 -5 44 -25 45 -13 1 -18 -1 -13 -5 14
-10 14 -52 1 -52 -6 0 -5 -4 3 -9 8 -5 21 -7 29 -3 9 3 13 1 9 -5 -8 -12 17
-36 26 -26 4 3 7 4 7 1 0 -3 -8 -12 -17 -19 -9 -8 -14 -9 -11 -4 4 6 -2 16
-13 23 -12 8 -20 8 -20 2 -5 -28 -3 -33 14 -36 29 -4 31 -11 2 -11 -14 0 -25
4 -25 9 0 5 -4 7 -10 3 -5 -3 -7 -12 -4 -19 3 -7 -1 -16 -8 -18 -9 -4 -14 4
-15 23 -2 23 1 27 15 22 15 -6 15 -5 4 10 -8 9 -11 21 -7 27 4 6 2 17 -4 24
-9 10 -8 15 4 20 21 8 19 26 -2 26 -14 0 -15 -2 -5 -9 11 -7 11 -9 -2 -14 -26
-10 -38 -44 -21 -61 13 -13 13 -16 0 -30 -9 -9 -14 -26 -11 -41 3 -14 0 -25
-5 -25 -5 0 -9 -8 -9 -17 0 -16 2 -16 11 -3 8 12 9 10 4 -7 -5 -17 -2 -23 9
-23 19 0 21 21 4 38 -11 11 -11 12 35 26 8 2 20 0 28 -5 12 -8 12 -10 -1 -8
-30 3 -39 -1 -37 -20 0 -11 5 -17 9 -15 5 3 6 10 3 15 -4 5 -4 9 -1 9 3 0 10
-10 17 -21 6 -12 7 -19 1 -15 -6 3 -18 3 -27 0 -13 -6 -14 -9 -3 -16 10 -8 9
-9 -4 -4 -10 3 -20 1 -23 -4 -4 -6 -1 -10 5 -10 6 0 8 -5 5 -10 -5 -8 -11 -7
-21 1 -12 10 -13 9 -9 -4 4 -8 18 -18 31 -21 14 -4 22 -11 18 -17 -4 -8 -9 -7
-15 2 -5 8 -9 10 -9 5 0 -5 -6 -4 -13 2 -7 6 -17 8 -23 4 -13 -8 -15 -44 -2
-36 5 3 6 10 3 15 -11 16 0 10 18 -12 18 -20 18 -21 -1 -15 -12 4 -28 -1 -43
-13 -13 -11 -18 -20 -11 -21 6 0 12 5 12 10 0 6 5 10 12 10 9 0 9 -3 0 -12
-15 -15 -16 -45 -1 -50 7 -2 5 -9 -5 -17 -14 -12 -16 -12 -11 0 4 11 -3 15
-27 16 -18 1 -27 -1 -20 -4 7 -3 25 -16 39 -29 l25 -23 -26 -12 c-20 -10 -29
-9 -43 2 -11 9 -14 10 -9 1 4 -7 1 -15 -10 -19 -16 -6 -15 -7 2 -20 10 -7 13
-13 7 -13 -13 0 -4 -42 11 -52 7 -5 6 -8 -3 -8 -11 0 -11 -3 0 -17 11 -13 11
-17 2 -20 -7 -3 -13 -13 -13 -24 0 -11 -7 -19 -17 -19 -14 0 -15 2 -4 9 7 5
10 14 7 20 -9 13 -33 15 -40 2 -4 -5 4 -7 16 -3 20 5 21 3 10 -10 -9 -11 -10
-18 -2 -23 6 -3 8 -11 4 -16 -4 -6 -11 -6 -20 2 -8 6 -17 9 -21 5 -3 -3 -1 -6
5 -6 7 0 12 -5 12 -11 0 -6 -7 -8 -16 -5 -8 3 -12 2 -9 -3 3 -6 -3 -14 -12
-20 -16 -9 -16 -10 5 -11 13 0 20 4 17 10 -3 5 -4 10 -1 10 3 0 10 -10 17 -22
9 -18 9 -20 -4 -15 -11 4 -15 1 -12 -13 4 -19 -20 -36 -30 -20 -3 4 1 10 7 13
10 3 10 8 -1 18 -8 8 -11 9 -7 2 3 -6 2 -15 -4 -18 -8 -5 -7 -11 1 -21 11 -13
6 -18 -14 -15 -5 1 -7 -14 -4 -34 3 -19 1 -38 -4 -41 -15 -9 -10 -24 6 -18 11
5 13 2 9 -10 -3 -9 -10 -13 -15 -10 -17 10 -9 -5 16 -30 28 -28 31 -41 11 -49
-7 -3 -13 0 -13 6 1 31 -4 44 -17 44 -9 0 -13 -10 -12 -29 1 -15 -3 -28 -8
-28 -6 0 -5 -4 2 -9 7 -4 25 -6 40 -4 23 3 24 2 7 -6 -19 -9 -18 -12 4 -15 18
-2 21 -13 8 -25 -12 -9 -18 -6 -31 14 -19 29 -36 33 -36 8 0 -15 2 -16 10 -3
8 12 10 10 8 -9 -2 -16 3 -25 15 -27 11 -1 22 -6 25 -10 4 -4 -1 -4 -10 -1
-20 7 -34 -8 -16 -17 7 -4 3 -4 -9 -2 -34 6 -28 -13 7 -25 16 -6 27 -15 24
-21 -4 -7 -9 -7 -13 0 -6 10 -26 15 -48 13 -6 0 -11 -10 -10 -20 0 -11 5 -17
9 -15 5 3 6 10 3 15 -4 5 -4 9 -1 9 3 0 10 -10 17 -21 8 -16 8 -20 0 -14 -13
8 -66 -23 -56 -33 3 -4 10 0 15 8 5 8 11 12 14 10 2 -3 -2 -14 -10 -24 -11
-16 -16 -17 -29 -6 -13 11 -14 10 -9 -4 4 -9 0 -18 -9 -22 -9 -3 -15 -14 -14
-24 1 -10 5 -16 9 -14 5 3 6 10 3 15 -4 5 -1 9 4 9 6 0 11 -6 11 -14 0 -8 5
-16 11 -18 12 -4 1 -38 -12 -38 -5 0 -9 7 -9 16 0 9 5 12 12 8 6 -4 8 -3 5 4
-4 5 -16 8 -27 5 -23 -6 -49 -33 -31 -33 6 0 11 5 11 10 0 6 5 10 12 10 9 0 9
-3 0 -12 -13 -13 -16 -48 -4 -48 4 0 8 -8 8 -19 0 -11 -5 -17 -13 -14 -7 3
-10 10 -6 16 3 6 1 7 -5 3 -7 -4 -12 -2 -12 3 0 6 -10 10 -22 10 -15 -1 -17
-3 -7 -6 9 -2 22 -15 29 -28 7 -13 18 -22 24 -19 6 4 -2 -5 -19 -20 -30 -25
-30 -25 -47 -5 -10 11 -19 15 -23 9 -3 -5 -2 -10 3 -10 10 0 22 -29 26 -63 2
-10 -2 -16 -8 -14 -6 3 -10 10 -8 16 1 7 -2 10 -8 6 -5 -3 -10 -1 -10 4 0 6
-7 11 -17 11 -13 0 -11 -4 7 -20 13 -12 25 -27 26 -35 2 -13 -25 -36 -48 -41
-5 -1 -11 -2 -14 -3 -4 0 -1 -7 5 -14 6 -8 8 -16 5 -20 -3 -3 0 -15 6 -28 11
-20 10 -21 -11 -16 -22 6 -22 5 4 -17 19 -17 35 -22 50 -18 l22 7 -22 3 c-28
4 -30 17 -4 19 27 2 37 -27 11 -34 -11 -3 -17 -10 -13 -17 3 -6 3 -8 -2 -4 -4
4 -14 3 -22 -4 -11 -9 -12 -7 -7 8 6 16 5 17 -7 6 -14 -13 -33 -17 -26 -4 3 4
1 16 -4 27 -5 13 -7 0 -6 -37 1 -31 5 -54 10 -51 4 2 7 11 7 19 0 8 8 14 18
14 22 0 48 -80 29 -92 -6 -4 -14 -5 -18 -2 -4 2 -10 0 -14 -6 -4 -6 -11 -7
-17 -4 -6 4 -8 -1 -3 -15 4 -13 2 -21 -5 -21 -6 0 -9 4 -5 9 3 5 1 12 -5 16
-14 9 -1 28 15 21 7 -2 16 -2 20 2 4 4 11 7 16 7 12 0 13 6 5 33 -7 22 -36 32
-36 12 0 -5 5 -10 10 -10 20 0 9 -19 -20 -33 -21 -11 -30 -12 -34 -3 -3 7 -5
7 -5 -1 -2 -22 -27 -14 -28 8 -1 12 -6 26 -10 30 -5 5 -7 -6 -5 -25 4 -35 30
-56 42 -35 5 6 12 -3 20 -23 24 -63 21 -83 -11 -80 -3 0 -16 -9 -30 -21 -14
-12 -19 -18 -12 -13 8 5 13 4 13 -2 0 -6 -4 -13 -9 -17 -5 -3 -8 -18 -6 -34 2
-18 -1 -31 -9 -34 -9 -4 -11 2 -8 21 5 25 4 26 -12 9 -14 -14 -16 -20 -6 -32
7 -8 17 -12 23 -8 6 4 8 0 4 -10 -7 -17 15 -41 28 -29 5 4 5 1 1 -6 -6 -9 -11
-10 -20 -3 -7 6 -16 9 -19 6 -4 -3 -5 -2 -2 1 5 8 -20 34 -34 34 -5 0 -13 -5
-17 -12 -4 -6 -3 -8 4 -4 6 3 13 2 17 -4 3 -6 0 -13 -9 -16 -9 -3 -13 -14 -10
-29 2 -13 0 -35 -5 -48 -8 -20 -6 -29 6 -39 14 -11 15 -10 8 11 -6 20 -4 23 9
18 13 -5 15 -3 7 11 -12 24 -11 76 1 64 6 -6 17 -8 24 -5 8 3 14 0 14 -6 0 -6
-5 -11 -11 -11 -5 0 -7 -5 -3 -12 5 -8 10 -7 18 4 10 14 13 14 26 0 13 -14 12
-15 -3 -9 -9 3 -19 2 -23 -4 -4 -6 -11 -6 -20 2 -20 16 -28 5 -14 -20 6 -13
16 -19 23 -14 7 4 7 0 -2 -10 -9 -12 -10 -17 -2 -17 7 0 9 -5 6 -10 -3 -5 -2
-10 4 -10 5 0 15 8 21 17 7 12 10 13 7 3 -2 -8 6 -23 17 -33 21 -18 20 -18 -6
-1 -27 15 -28 15 -29 -2 0 -11 -3 -14 -6 -6 -2 6 -10 9 -15 6 -7 -5 -8 -2 -3
6 6 10 4 12 -10 6 -15 -5 -16 -4 -6 8 7 8 8 17 3 20 -6 3 -13 -1 -16 -10 -5
-12 -10 -14 -20 -5 -7 6 -15 8 -19 5 -3 -3 -8 4 -12 15 -3 12 -13 21 -22 21
-15 0 -15 -2 0 -17 8 -10 17 -22 18 -28 2 -5 9 -9 16 -7 21 5 15 -16 -7 -23
-21 -7 -28 -25 -9 -25 5 0 7 -5 3 -11 -4 -8 -12 -3 -21 12 -8 13 -12 17 -10 9
2 -8 -3 -21 -10 -28 -10 -10 -11 -18 -3 -27 6 -7 7 -15 3 -17 -4 -3 -3 -3 4
-2 17 4 23 -21 10 -37 -10 -11 -9 -11 4 -1 13 10 19 8 33 -6 13 -16 14 -19 1
-19 -8 0 -11 5 -8 10 3 5 0 8 -7 5 -21 -7 -23 -26 -3 -31 17 -4 17 -5 -1 -6
-27 -1 -47 29 -34 52 8 16 7 17 -9 9 -10 -6 -31 -25 -48 -44 l-30 -33 34 30
c23 20 32 24 28 13 -4 -12 -1 -18 10 -18 12 0 13 -3 4 -14 -10 -11 -8 -16 7
-21 14 -4 18 -12 15 -26 -5 -18 -6 -19 -19 -2 -12 17 -13 17 -10 0 1 -10 9
-26 17 -35 8 -9 15 -21 16 -25 1 -5 10 -15 20 -22 10 -7 15 -17 10 -21 -4 -4
-7 -2 -7 5 0 7 -4 9 -10 6 -5 -3 -10 -1 -10 5 0 6 -5 8 -10 5 -6 -4 -10 -3 -9
2 4 21 -2 33 -17 33 -8 0 -12 -4 -9 -10 3 -5 1 -10 -4 -10 -6 0 -11 -8 -10
-17 0 -11 3 -13 6 -5 2 6 9 12 14 12 6 0 7 -5 4 -10 -3 -5 0 -10 7 -10 7 -1 3
-9 -10 -20 -13 -11 -18 -21 -12 -25 5 -3 10 -1 10 5 0 6 5 8 11 4 13 -8 -7
-24 -32 -24 -12 0 -15 7 -13 28 2 15 1 19 -2 9 -6 -18 -6 -18 -19 0 -10 13
-13 14 -11 3 6 -30 18 -50 32 -50 8 0 14 -5 14 -11 0 -5 -6 -7 -12 -4 -7 4 -4
-1 6 -9 11 -9 23 -16 26 -16 4 0 7 -7 7 -15 0 -8 -5 -15 -10 -15 -5 0 -7 -7
-4 -14 5 -12 1 -13 -16 -6 -12 4 -21 13 -20 19 2 7 -5 7 -22 -1 -13 -6 -21
-16 -18 -21 5 -8 8 -7 11 1 2 7 8 9 14 6 6 -4 5 -10 -3 -15 -10 -6 -10 -9 -2
-9 7 0 10 -7 6 -17 -5 -13 -2 -15 11 -10 10 4 19 7 22 7 2 0 0 8 -3 17 -6 15
-5 16 9 3 15 -14 14 -16 -3 -26 -11 -5 -16 -13 -12 -17 4 -5 -4 -4 -17 1 -15
6 -24 16 -22 26 2 11 -4 16 -18 16 -12 0 -19 3 -17 8 3 4 -4 15 -14 25 -11 12
-16 14 -15 5 6 -29 19 -48 32 -48 8 0 14 -5 14 -11 0 -5 -6 -7 -12 -4 -7 4 -4
-1 6 -9 11 -9 23 -16 26 -16 4 0 7 -7 7 -15 0 -8 -5 -15 -10 -15 -5 0 -7 -6
-4 -14 4 -10 0 -12 -16 -8 -12 2 -27 9 -34 14 -7 6 -14 4 -19 -3 -11 -18 26
-42 43 -28 8 8 13 8 13 1 0 -6 -6 -12 -12 -15 -10 -4 -10 -7 0 -18 9 -9 12
-10 12 -1 0 7 5 12 12 12 9 0 9 -3 1 -11 -6 -6 -9 -18 -6 -25 3 -8 0 -14 -7
-14 -6 0 -9 -4 -5 -9 3 -6 -3 -15 -12 -21 -15 -9 -14 -10 7 -4 22 6 23 5 12
-9 -8 -9 -21 -13 -30 -10 -15 6 -16 5 -2 -12 14 -17 14 -17 -7 -4 -24 14 -38
39 -24 39 5 0 11 -5 13 -11 2 -6 12 5 22 24 19 34 19 35 -3 58 -18 20 -21 20
-15 5 6 -15 4 -17 -7 -11 -11 6 -12 5 -1 -6 19 -21 14 -36 -18 -56 -16 -9 -30
-21 -30 -26 0 -5 8 -3 18 4 14 11 15 11 5 -1 -20 -22 -15 -32 9 -24 19 6 21 5
11 -8 -7 -8 -10 -18 -7 -21 4 -4 -1 -18 -10 -31 -14 -22 -14 -25 -1 -20 8 4
15 2 15 -4 0 -14 -32 -24 -43 -13 -6 6 -3 18 7 32 21 31 21 34 -11 48 -24 9
-25 9 -11 -2 12 -10 14 -17 6 -31 -5 -10 -8 -26 -5 -37 6 -21 -9 -27 -15 -7
-3 8 -10 4 -17 -10 -12 -22 -11 -23 11 -17 19 7 21 6 11 -7 -7 -8 -10 -18 -7
-21 4 -4 -1 -18 -10 -31 -14 -22 -14 -25 -1 -20 9 4 15 0 15 -9 0 -10 -8 -14
-26 -12 -16 1 -28 -3 -32 -14 -3 -9 -9 -18 -13 -21 -4 -3 -4 -12 1 -20 8 -13
10 -12 10 3 0 9 4 17 10 17 5 0 7 6 4 14 -4 11 0 13 15 9 12 -3 21 -12 21 -19
0 -8 5 -14 11 -14 5 0 8 4 4 9 -3 5 0 13 6 17 8 4 9 3 5 -4 -4 -7 -2 -12 3
-12 6 0 11 7 11 15 0 8 -5 15 -12 15 -6 0 -8 3 -5 6 3 4 2 15 -4 26 -10 18 -9
19 20 3 32 -16 43 -29 16 -19 -8 4 -15 1 -15 -4 0 -6 7 -17 15 -26 8 -8 15
-17 15 -20 0 -3 -7 -3 -15 0 -8 4 -15 1 -15 -5 0 -15 -48 -14 -53 2 -2 6 -2
-1 0 -18 3 -21 1 -26 -5 -16 -6 9 -12 10 -16 2 -7 -10 47 -44 56 -35 3 3 8 -2
12 -11 3 -9 2 -13 -4 -10 -5 3 -14 -3 -20 -14 -6 -12 -16 -18 -25 -15 -9 4
-15 0 -15 -9 0 -21 -50 -10 -51 12 0 12 -2 13 -6 2 -3 -8 2 -20 13 -28 10 -7
12 -13 6 -13 -7 0 -12 -7 -12 -15 0 -13 11 -19 32 -17 3 1 9 -5 12 -13 3 -8 2
-14 -3 -12 -5 1 -18 -9 -30 -23 -13 -14 -20 -19 -16 -12 3 6 1 12 -4 12 -6 0
-11 8 -11 18 0 14 2 15 10 2 7 -12 12 -12 22 -2 10 10 10 15 -2 22 -22 14 -28
12 -35 -11 -6 -17 -9 -19 -16 -8 -5 8 -9 10 -9 4 0 -5 -4 -4 -9 4 -5 8 -11 9
-15 3 -3 -5 7 -15 23 -22 17 -6 32 -22 35 -35 3 -13 14 -26 24 -28 16 -4 16
-5 0 -6 -19 -1 -26 -31 -7 -31 5 0 7 -5 4 -10 -4 -6 3 -18 15 -28 21 -17 20
-17 -17 -16 -21 0 -46 -3 -55 -8 -26 -13 -21 4 7 25 22 16 25 16 25 2 0 -9 4
-14 9 -11 13 8 2 44 -12 42 -19 -3 -65 -53 -58 -63 8 -13 44 -25 36 -13 -3 6
-2 10 3 10 6 0 13 -11 16 -25 4 -14 10 -23 15 -21 5 3 15 -2 22 -12 13 -15 12
-16 -3 -3 -13 9 -18 10 -18 2 0 -7 -4 -9 -10 -6 -5 3 -10 2 -10 -4 0 -5 6 -12
13 -14 9 -4 9 -6 -1 -6 -7 -1 -17 10 -22 24 -5 14 -14 25 -20 25 -6 0 -8 6 -4
13 4 7 2 7 -7 -2 -11 -10 -11 -15 -1 -18 6 -3 10 -9 6 -14 -3 -5 5 -18 18 -29
l23 -19 -24 6 c-15 4 -22 2 -18 -4 3 -5 -6 -8 -23 -5 -15 2 -36 -1 -47 -7 -15
-9 -12 -10 15 -5 33 7 41 -3 20 -25 -10 -11 -10 -13 0 -7 6 4 12 2 12 -3 0 -6
3 -10 8 -10 19 3 32 -2 32 -12 0 -8 -5 -8 -15 1 -11 9 -15 9 -15 1 0 -7 -5 -9
-12 -5 -7 4 -8 3 -4 -5 4 -6 12 -9 17 -6 5 4 9 1 9 -4 0 -6 -9 -11 -19 -11
-11 0 -23 -5 -26 -10 -4 -6 -11 -7 -17 -4 -6 4 -8 2 -5 -3 4 -6 0 -13 -8 -17
-10 -3 -14 -17 -13 -40 2 -19 6 -32 11 -29 4 2 7 -1 7 -6 0 -6 -9 -11 -19 -11
-11 0 -23 -5 -27 -12 -5 -7 -3 -8 6 -3 10 6 12 1 7 -21 -4 -25 -3 -26 8 -11
13 18 31 24 20 7 -3 -5 -1 -10 4 -10 6 0 11 -5 11 -11 0 -8 -4 -8 -14 0 -8 7
-17 8 -20 3 -3 -5 -18 -12 -33 -15 -24 -4 -26 -4 -10 8 16 12 16 13 0 26 -10
7 -15 9 -11 5 4 -5 3 -15 -4 -23 -8 -10 -8 -17 0 -25 19 -19 14 -38 -9 -38
-18 0 -19 -2 -9 -15 10 -12 9 -20 -4 -40 -14 -21 -14 -24 -1 -19 9 4 15 0 15
-9 0 -10 -8 -14 -26 -12 -16 1 -28 -3 -32 -14 -3 -9 -9 -18 -13 -21 -4 -3 -4
-12 1 -20 8 -13 10 -12 10 3 0 9 4 17 10 17 5 0 7 6 4 14 -4 11 0 13 15 9 12
-3 21 -12 21 -19 0 -8 5 -14 11 -14 5 0 8 4 4 9 -3 5 0 13 6 17 8 4 9 3 5 -4
-4 -7 -2 -12 3 -12 6 0 11 7 11 15 0 8 -5 15 -12 15 -6 0 -8 3 -5 6 3 4 2 15
-4 26 -10 18 -9 19 20 3 32 -16 43 -29 16 -19 -8 4 -15 1 -15 -4 0 -6 7 -17
15 -26 8 -8 15 -17 15 -20 0 -3 -7 -3 -15 0 -8 4 -15 1 -15 -5 0 -19 -50 -13
-51 7 0 12 -2 13 -6 3 -3 -8 2 -20 11 -26 14 -11 14 -13 2 -18 -8 -3 -17 -1
-20 6 -2 7 -5 5 -5 -5 -1 -15 33 -35 51 -30 3 1 9 -5 12 -14 3 -8 2 -12 -4 -9
-5 3 -14 -3 -20 -14 -6 -12 -16 -18 -25 -15 -9 4 -15 0 -15 -9 0 -20 -48 -10
-53 12 -4 14 -5 13 -6 -2 0 -10 6 -20 14 -23 21 -8 19 -31 -4 -39 -11 -3 -22
-13 -25 -22 -9 -23 13 -83 30 -83 8 0 14 -6 14 -12 0 -10 2 -10 9 0 7 11 9 11
14 0 3 -9 -2 -14 -14 -15 -10 -1 -19 3 -19 10 0 7 -4 6 -12 -2 -11 -11 -10
-14 0 -18 6 -3 10 -9 6 -14 -3 -5 4 -17 16 -27 20 -17 20 -17 -26 -20 -25 -1
-54 -7 -63 -13 -12 -8 -10 -9 13 -4 25 5 28 4 23 -14 -3 -12 -1 -19 4 -15 5 3
9 0 9 -5 0 -6 3 -10 8 -10 19 3 32 -2 32 -12 0 -8 -5 -8 -15 1 -11 9 -15 9
-15 1 0 -7 -4 -9 -10 -6 -5 3 -10 2 -10 -4 0 -5 8 -12 18 -14 16 -4 16 -5 -1
-6 -10 -1 -21 9 -27 24 -5 14 -17 25 -27 24 -10 0 -13 -3 -6 -5 7 -3 9 -12 7
-19 -8 -20 -33 5 -26 25 7 19 1 14 -27 -27 -24 -35 -22 -43 3 -17 17 17 41 10
29 -9 -4 -7 0 -6 10 2 21 17 47 0 47 -31 0 -10 4 -17 9 -14 5 3 15 -2 22 -11
12 -15 12 -16 -1 -8 -21 13 -40 15 -40 4 0 -5 -4 -9 -8 -9 -5 0 -9 7 -9 15 0
8 4 15 9 15 4 0 8 7 8 16 0 9 -5 12 -12 8 -7 -5 -27 -7 -44 -5 -18 1 -35 -2
-38 -7 -3 -5 6 -7 19 -4 27 5 32 -6 13 -27 -10 -11 -10 -13 0 -7 6 4 12 2 12
-3 0 -6 3 -10 8 -10 19 3 32 -2 32 -12 0 -8 -5 -8 -15 1 -11 9 -15 9 -15 1 0
-7 -5 -9 -12 -5 -7 4 -8 3 -4 -5 4 -6 12 -9 17 -6 5 4 9 2 9 -4 0 -5 -10 -11
-22 -13 -14 -2 -24 -11 -25 -23 l-3 -20 9 20 c9 19 10 19 10 -4 1 -21 3 -22
19 -10 9 7 14 9 10 5 -4 -5 -2 -16 5 -25 10 -14 10 -14 -5 -3 -11 9 -18 10
-23 2 -7 -11 -36 -14 -34 -3 3 19 -2 33 -11 33 -18 0 -23 -30 -10 -56 16 -30
12 -34 -34 -36 -20 -1 -32 -4 -27 -7 13 -8 8 -44 -7 -49 -20 -6 -13 -18 11
-20 15 -1 24 4 24 13 0 8 -5 11 -11 8 -6 -3 -6 -1 1 7 6 7 9 19 6 26 -3 8 0
14 7 14 6 0 9 -4 6 -9 -3 -4 1 -17 9 -27 13 -16 14 -17 9 -2 -4 11 -1 18 6 18
6 0 8 5 5 10 -3 6 3 10 14 10 23 0 32 -18 20 -42 -6 -11 -18 -15 -38 -13 -23
3 -29 1 -24 -11 3 -7 0 -14 -6 -14 -6 0 -11 -5 -11 -11 0 -5 5 -7 11 -3 12 7
59 -15 59 -28 0 -5 -5 -6 -11 -2 -15 9 -1 -36 17 -57 12 -13 12 -16 -1 -16 -8
0 -11 5 -8 10 4 6 0 8 -8 5 -8 -3 -20 1 -27 8 -7 8 -9 14 -5 14 4 0 1 5 -7 10
-13 8 -13 10 2 10 9 0 19 -5 21 -10 3 -6 4 -5 3 2 -2 7 -15 12 -30 11 -14 -1
-26 2 -26 8 0 5 5 9 11 9 6 0 1 9 -12 19 -13 11 -28 17 -33 14 -5 -4 0 -12 10
-20 16 -12 17 -15 4 -23 -11 -7 -12 -10 -2 -10 14 0 42 -24 42 -35 0 -3 -9 -3
-21 0 -18 6 -20 4 -14 -16 4 -13 17 -31 29 -42 l21 -18 -21 10 c-12 6 -24 7
-28 4 -3 -3 -6 5 -6 20 0 14 -4 28 -8 31 -4 2 -7 -10 -7 -27 1 -21 -6 -38 -20
-49 -11 -10 -15 -17 -7 -18 6 0 12 -5 12 -11 0 -6 -9 -8 -20 -4 -12 4 -20 2
-20 -5 0 -6 -5 -8 -12 -4 -7 4 -8 3 -4 -5 6 -9 11 -9 21 -1 11 9 12 7 8 -9 -4
-15 -1 -21 11 -21 9 0 16 -5 16 -10 0 -7 6 -7 20 0 12 6 17 17 14 28 -5 14 -4
14 4 2 8 -10 8 -18 0 -28 -9 -10 -6 -14 10 -19 12 -3 19 -9 16 -14 -3 -5 2869
-9 6850 -9 l6856 0 0 5000 0 5000 -5294 0 c-4825 0 -5294 -1 -5300 -16z m29
-22 c-3 -3 -11 0 -18 7 -9 10 -8 11 6 5 10 -3 15 -9 12 -12z m-70 -32 c3 -5
-1 -10 -10 -10 -9 0 -13 5 -10 10 3 6 8 10 10 10 2 0 7 -4 10 -10z m45 -13 c0
-7 -4 -6 -10 3 -8 12 -10 10 -10 -8 0 -13 -4 -20 -10 -17 -7 4 -7 13 0 26 11
20 30 17 30 -4z m-13 -53 c-3 -3 -12 -4 -19 -1 -8 3 -5 6 6 6 11 1 17 -2 13
-5z m-70 -120 c-3 -3 -12 -4 -19 -1 -8 3 -5 6 6 6 11 1 17 -2 13 -5z m-32 -22
c-3 -3 -11 0 -18 7 -9 10 -8 11 6 5 10 -3 15 -9 12 -12z m50 -4 c5 4 5 2 1 -5
-3 -6 1 -13 10 -15 15 -3 15 -4 -1 -18 -11 -9 -16 -10 -11 -2 4 7 1 14 -8 18
-8 3 -17 13 -20 21 -5 12 -4 13 7 5 8 -7 18 -8 22 -4z m-78 -50 c-5 -16 -2
-19 13 -15 12 3 17 0 13 -9 -4 -10 -10 -10 -31 -1 -15 6 -28 12 -30 13 -2 1 1
12 8 23 13 26 34 17 27 -11z m98 -26 c-3 -3 -11 0 -18 7 -9 10 -8 11 6 5 10
-3 15 -9 12 -12z m-47 -35 c8 -10 6 -13 -9 -14 -10 -1 -19 5 -19 13 0 17 14
18 28 1z m-30 -85 c-10 -2 -18 -8 -18 -14 0 -6 -2 -9 -5 -6 -12 12 7 37 23 30
16 -6 15 -7 0 -10z m-58 -77 c0 -8 -6 -15 -13 -15 -8 0 -14 7 -14 15 0 8 6 15
14 15 7 0 13 -7 13 -15z m-40 -30 c0 -5 -5 -3 -10 5 -5 8 -10 20 -10 25 0 6 5
3 10 -5 5 -8 10 -19 10 -25z m86 -50 c1 -8 -2 -15 -7 -15 -5 0 -9 5 -9 11 0 5
-5 7 -10 4 -6 -4 -7 -11 -4 -17 5 -7 2 -8 -5 -4 -9 6 -8 13 5 27 18 20 26 18
30 -6z m-39 -57 c-3 -8 -6 -5 -6 6 -1 11 2 17 5 13 3 -3 4 -12 1 -19z m-27
-64 c0 -8 -4 -14 -10 -14 -5 0 -10 5 -10 11 0 5 -5 7 -10 4 -8 -5 -7 -12 2
-23 12 -15 11 -16 -5 -3 -16 13 -16 15 -1 32 18 20 34 17 34 -7z m-40 -49 c0
-8 -4 -15 -10 -15 -5 0 -7 7 -4 15 4 8 8 15 10 15 2 0 4 -7 4 -15z m-3 -47
c-3 -8 -6 -5 -6 6 -1 11 2 17 5 13 3 -3 4 -12 1 -19z m-27 -24 c0 -8 -4 -14
-9 -14 -11 0 -22 26 -14 34 9 9 23 -3 23 -20z m-6 -33 c-3 -3 -11 -6 -17 -6
-7 -1 -11 -6 -10 -12 1 -6 -4 -14 -12 -17 -8 -3 -15 -1 -15 4 0 14 27 37 44
37 9 0 13 -3 10 -6z m22 -33 c4 -7 3 -8 -4 -4 -7 4 -12 2 -12 -3 0 -6 -8 -11
-17 -11 -15 0 -14 2 3 15 23 18 21 17 30 3z m-36 -92 c0 -2 -7 -7 -16 -10 -8
-3 -12 -2 -9 4 6 10 25 14 25 6z m-15 -53 c-5 -10 -7 -22 -6 -27 1 -5 -6 -3
-16 4 -28 22 -29 24 -10 17 14 -5 20 -1 24 13 3 12 8 19 11 16 2 -3 1 -13 -3
-23z m-62 -28 c-3 -9 -8 -14 -10 -11 -3 3 -2 9 2 15 9 16 15 13 8 -4z m7 -39
c0 -2 -7 -7 -16 -10 -8 -3 -12 -2 -9 4 6 10 25 14 25 6z m60 -26 c0 -5 -5 -10
-11 -10 -5 0 -7 5 -4 10 3 6 8 10 11 10 2 0 4 -4 4 -10z m-65 -140 c-3 -5 -12
-10 -18 -10 -7 0 -6 4 3 10 19 12 23 12 15 0z m-16 -83 c-2 -1 -12 -9 -22 -16
-15 -12 -17 -12 -11 3 3 9 13 16 22 16 8 0 13 -1 11 -3z m-24 -57 c-3 -5 -12
-10 -18 -10 -7 0 -6 4 3 10 19 12 23 12 15 0z m-45 -45 c-7 -8 -9 -15 -6 -15
4 0 0 -7 -9 -16 -9 -9 -18 -14 -21 -12 -5 5 34 58 43 58 3 0 0 -7 -7 -15z
m-40 -15 c0 -5 -2 -10 -4 -10 -3 0 -8 5 -11 10 -3 6 -1 10 4 10 6 0 11 -4 11
-10z m15 -61 c-4 -5 -12 -9 -18 -8 -9 0 -8 2 1 6 6 2 9 10 6 15 -4 7 -2 8 5 4
6 -4 9 -12 6 -17z m-32 -35 c-2 -6 -15 -11 -29 -11 -19 0 -22 2 -14 13 14 16
50 14 43 -2z m47 1 c0 -2 -6 -5 -13 -8 -8 -3 -14 1 -14 8 0 7 6 11 14 8 7 -3
13 -6 13 -8z m-85 -87 c-9 -6 -19 -7 -22 -4 -4 3 -1 6 6 6 7 0 9 4 6 10 -4 6
1 7 11 3 15 -6 15 -7 -1 -15z m5 -108 c0 -5 -8 -10 -17 -10 -15 0 -16 2 -3 10
19 12 20 12 20 0z m4 -28 c3 -5 -1 -9 -9 -9 -8 0 -12 4 -9 9 3 4 7 8 9 8 2 0
6 -4 9 -8z m-94 -196 c0 -2 -7 -7 -16 -10 -8 -3 -12 -2 -9 4 6 10 25 14 25 6z
m10 -90 c0 -3 -4 -8 -10 -11 -5 -3 -10 -1 -10 4 0 6 5 11 10 11 6 0 10 -2 10
-4z m-96 -40 c-21 -15 -30 -14 -19 3 3 6 14 11 23 11 13 0 13 -2 -4 -14z m75
-18 c-1 -19 -2 -19 -6 -5 -3 11 -11 16 -19 13 -9 -3 -12 -1 -9 4 12 19 35 10
34 -12z m-49 2 c0 -5 -8 -10 -17 -11 -15 0 -15 -2 2 -9 15 -6 16 -9 4 -9 -23
-1 -31 10 -18 26 13 15 29 17 29 3z m-70 -119 c0 -5 -6 -12 -12 -15 -7 -4 -3
-4 10 -2 12 2 20 0 16 -5 -6 -10 -38 -12 -47 -2 -8 7 11 33 24 33 5 0 9 -4 9
-9z m13 -48 c-7 -2 -13 -11 -13 -19 0 -8 -4 -14 -10 -14 -11 0 -14 23 -3 33 3
4 13 7 22 6 10 0 12 -2 4 -6z m55 -5 c-2 -6 -10 -13 -16 -14 -7 -1 -8 0 -2 3
5 2 8 9 4 14 -3 5 0 9 6 9 7 0 10 -5 8 -12z m-39 -81 c0 -9 -2 -8 -6 1 -2 6
-10 9 -15 6 -7 -4 -8 -2 -4 5 9 13 26 5 25 -12z m11 -27 c0 -5 -2 -10 -4 -10
-3 0 -8 5 -11 10 -3 6 -1 10 4 10 6 0 11 -4 11 -10z m-70 -91 c0 -5 -4 -7 -10
-4 -9 6 -12 1 -14 -34 -1 -8 -7 -16 -15 -19 -10 -3 -11 2 -6 19 12 40 45 68
45 38z m17 -11 c-3 -8 -6 -5 -6 6 -1 11 2 17 5 13 3 -3 4 -12 1 -19z m-17 -77
c0 -6 -4 -12 -8 -15 -5 -3 -9 1 -9 9 0 8 4 15 9 15 4 0 8 -4 8 -9z m-70 -22
c0 -11 -4 -18 -10 -14 -5 3 -7 12 -3 20 7 21 13 19 13 -6z m17 -21 c-3 -8 -6
-5 -6 6 -1 11 2 17 5 13 3 -3 4 -12 1 -19z m28 -66 c-3 -3 -11 0 -18 7 -9 10
-8 11 6 5 10 -3 15 -9 12 -12z m-45 -11 c0 -16 -14 -20 -27 -10 -19 17 -16 28
7 22 11 -3 20 -9 20 -12z m-16 -67 c3 -8 2 -12 -4 -9 -6 3 -10 10 -10 16 0 14
7 11 14 -7z m-22 -61 c-6 -2 -10 -9 -6 -14 3 -5 0 -9 -5 -9 -12 0 -14 13 -4
23 3 4 11 7 17 6 6 0 5 -3 -2 -6z m-62 -77 c0 -2 -8 -10 -17 -17 -16 -13 -17
-12 -4 4 13 16 21 21 21 13z m65 -56 c3 -6 -1 -7 -9 -4 -18 7 -21 14 -7 14 6
0 13 -4 16 -10z m-113 -119 c-11 -6 -10 -12 5 -26 17 -18 17 -18 -4 -13 -12 3
-32 -1 -45 -9 -17 -11 -16 -8 5 11 15 14 25 26 22 26 -3 0 -3 5 0 10 3 6 12
10 18 10 8 0 8 -3 -1 -9z m39 -4 c-1 -4 -2 -19 -2 -34 -1 -22 -2 -23 -6 -8 -3
11 -10 23 -17 27 -7 5 -3 8 9 8 17 0 18 2 5 11 -10 7 -11 9 -2 7 8 -2 13 -7
13 -11z m-16 -75 c-3 -3 -11 0 -18 7 -9 10 -8 11 6 5 10 -3 15 -9 12 -12z
m-65 -112 c12 -8 9 -10 -13 -10 -16 0 -26 4 -22 10 8 12 16 12 35 0z m17 -85
c0 -11 -4 -12 -14 -4 -7 6 -13 13 -13 15 0 2 6 4 13 4 8 0 14 -7 14 -15z m-22
-65 c3 -5 1 -10 -4 -10 -6 0 -11 5 -11 10 0 6 2 10 4 10 3 0 8 -4 11 -10z
m-40 -33 c-8 -13 -12 -26 -9 -30 3 -3 -3 -3 -15 0 -22 5 -29 23 -10 23 6 0 17
7 25 15 23 22 27 18 9 -8z m0 -57 c3 -5 -1 -10 -10 -10 -9 0 -13 5 -10 10 3 6
8 10 10 10 2 0 7 -4 10 -10z m-65 -32 c0 -9 3 -9 12 0 14 14 28 16 28 3 0 -12
-39 -21 -46 -10 -3 5 -10 7 -15 4 -5 -4 -9 -1 -9 4 0 6 7 11 15 11 8 0 15 -5
15 -12z m80 2 c8 -5 11 -10 5 -10 -5 0 -17 5 -25 10 -8 5 -10 10 -5 10 6 0 17
-5 25 -10z m-55 -40 c-3 -5 -11 -10 -16 -10 -6 0 -7 5 -4 10 3 6 11 10 16 10
6 0 7 -4 4 -10z m-141 -581 c-2 -4 2 -10 8 -12 8 -4 9 -6 2 -6 -6 -1 -17 5
-23 12 -8 10 -7 14 4 14 8 0 12 -4 9 -8z m-70 -120 c-2 -4 2 -10 8 -12 8 -4 7
-6 -3 -6 -9 -1 -19 5 -22 12 -3 8 1 14 9 14 7 0 11 -4 8 -8z m-1 -49 c3 -11 3
-20 1 -20 -2 0 -8 9 -14 20 -6 11 -7 20 -2 20 6 0 12 -9 15 -20z m-13 -45 c0
-25 -15 -24 -16 1 -1 13 2 21 7 18 5 -3 9 -11 9 -19z m-50 -25 c-13 -9 -13
-10 0 -11 8 -1 18 -1 23 0 14 2 7 -17 -9 -23 -8 -3 -12 -2 -9 4 3 6 0 10 -8
10 -24 0 -27 26 -4 28 17 1 19 -1 7 -8z m-36 -25 c-4 -8 -11 -12 -16 -9 -6 4
-5 10 3 15 19 12 19 11 13 -6z m34 -31 c7 -15 17 -22 24 -18 7 5 8 3 3 -5 -5
-9 -13 -7 -31 10 -24 23 -31 39 -16 39 5 0 14 -12 20 -26z m-98 -82 c0 -13
-12 -22 -22 -16 -10 6 -1 24 13 24 5 0 9 -4 9 -8z m40 -186 c0 -3 -4 -8 -10
-11 -5 -3 -10 -1 -10 4 0 6 5 11 10 11 6 0 10 -2 10 -4z m-70 -120 c0 -3 -4
-8 -10 -11 -5 -3 -10 -1 -10 4 0 6 5 11 10 11 6 0 10 -2 10 -4z m-50 -155 c0
-10 -57 -8 -67 3 -3 3 10 6 30 6 21 0 37 -4 37 -9z m-33 -25 c-3 -7 -1 -18 5
-24 6 -6 6 -12 0 -16 -14 -8 -35 21 -28 39 3 8 10 15 17 15 6 0 9 -6 6 -14z
m33 -6 c0 -5 -5 -10 -11 -10 -5 0 -7 5 -4 10 3 6 8 10 11 10 2 0 4 -4 4 -10z
m7 -66 c-3 -3 -12 -4 -19 -1 -8 3 -5 6 6 6 11 1 17 -2 13 -5z m-13 -45 c-2 -4
2 -10 8 -12 8 -4 9 -6 2 -6 -6 -1 -17 5 -23 12 -8 10 -7 14 4 14 8 0 12 -4 9
-8z m-57 -57 c-16 -3 -17 -6 -6 -13 11 -7 11 -9 -3 -9 -21 0 -22 4 -6 29 9 14
14 16 24 7 9 -8 7 -12 -9 -14z m-13 -63 c-2 -4 2 -10 8 -12 8 -4 7 -6 -3 -6
-9 -1 -19 5 -22 12 -3 8 1 14 9 14 7 0 11 -4 8 -8z m-31 -24 c-3 -9 -8 -14
-10 -11 -3 3 -2 9 2 15 9 16 15 13 8 -4z m-15 -42 c-6 -7 -22 -13 -37 -13 -19
0 -22 3 -12 9 8 5 21 7 30 4 13 -4 13 -3 2 5 -7 5 -10 15 -7 21 5 8 11 7 21
-2 9 -8 10 -16 3 -24z m46 21 c10 -25 -1 -29 -14 -5 -6 12 -7 21 -1 21 5 0 12
-7 15 -16z m-15 -38 c8 -10 8 -16 -1 -24 -10 -8 -13 -4 -14 14 -2 28 -1 29 15
10z m-45 -21 c3 -8 1 -15 -4 -15 -6 0 -10 7 -10 15 0 8 2 15 4 15 2 0 6 -7 10
-15z m-10 -20 c10 -8 23 -12 27 -9 5 3 9 1 9 -4 0 -6 -7 -13 -16 -16 -8 -3
-12 -2 -9 4 3 6 1 10 -4 10 -14 0 -14 -16 0 -41 5 -11 15 -16 21 -13 7 5 8 2
3 -5 -10 -17 -58 28 -50 47 3 8 0 21 -6 28 -15 18 1 17 25 -1z m76 -39 c0 -2
-8 -10 -17 -17 -16 -13 -17 -12 -4 4 13 16 21 21 21 13z m-130 -280 c0 -3 -4
-8 -10 -11 -5 -3 -10 -1 -10 4 0 6 5 11 10 11 6 0 10 -2 10 -4z m-41 -55 c9
-6 10 -11 2 -15 -6 -4 -11 -2 -11 4 0 6 -4 9 -9 5 -5 -3 -12 -1 -16 5 -8 12
15 13 34 1z m18 -116 c0 -8 -4 -15 -9 -15 -10 0 -11 14 -1 23 9 10 10 9 10 -8z
m-30 -82 c0 -7 -5 -12 -11 -10 -15 5 -18 24 -3 24 8 0 14 -6 14 -14z m-43 -1
c3 -5 -1 -9 -9 -9 -8 0 -12 4 -9 9 3 4 7 8 9 8 2 0 6 -4 9 -8z m-41 -27 c-3
-9 -8 -14 -10 -11 -3 3 -2 9 2 15 9 16 15 13 8 -4z m49 -2 c-6 -2 -10 -9 -6
-14 3 -5 0 -9 -5 -9 -12 0 -14 13 -4 23 3 4 11 7 17 6 6 0 5 -3 -2 -6z m-36
-28 c-1 -8 -8 -21 -16 -28 -10 -10 -11 -9 -4 3 5 8 9 18 10 23 3 14 4 17 8 17
2 0 3 -7 2 -15z m54 -19 c0 -2 -7 -7 -16 -10 -8 -3 -12 -2 -9 4 6 10 25 14 25
6z m-93 -22 c-3 -3 -12 -4 -19 -1 -8 3 -5 6 6 6 11 1 17 -2 13 -5z m40 -21 c0
-7 -6 -13 -14 -13 -7 0 -13 6 -13 13 0 8 6 14 13 14 8 0 14 -6 14 -14z m-35
-48 c-4 -21 0 -25 19 -26 17 -1 19 -3 6 -6 -9 -2 -15 -8 -12 -13 3 -4 -4 -6
-16 -3 -12 4 -18 11 -15 20 4 9 1 13 -6 10 -7 -2 -12 -9 -11 -15 1 -5 -4 -9
-12 -8 -20 3 -31 16 -13 16 8 0 15 7 15 15 0 8 -6 15 -14 15 -18 0 -16 17 3
24 11 4 18 -1 21 -15 4 -16 8 -17 14 -7 13 19 11 40 -3 32 -7 -5 -8 -3 -3 6
12 20 33 -14 27 -45z m55 0 c0 -8 -4 -12 -9 -9 -5 3 -6 10 -3 15 9 13 12 11
12 -6z m-51 -107 c4 -7 4 -10 -1 -6 -4 4 -15 2 -24 -5 -14 -11 -14 -10 -2 6
16 20 18 21 27 5z m-38 -43 c-3 -3 -9 2 -12 12 -6 14 -5 15 5 6 7 -7 10 -15 7
-18z m15 -50 c-3 -9 -8 -14 -10 -11 -3 3 -2 9 2 15 9 16 15 13 8 -4z m-63
-110 c0 -8 -4 -16 -9 -19 -5 -3 -8 5 -8 19 0 14 3 22 8 19 5 -3 9 -11 9 -19z
m-43 -61 c-3 -3 -12 -4 -19 -1 -8 3 -5 6 6 6 11 1 17 -2 13 -5z m-17 -56 c0 7
5 12 11 12 8 0 9 -4 0 -13 -6 -8 -9 -16 -6 -18 2 -3 -4 -5 -14 -5 -13 0 -18 8
-18 25 0 23 0 24 13 6 8 -10 14 -13 14 -7z m10 -73 c-7 -9 -15 -13 -19 -10 -3
3 1 10 9 15 21 14 24 12 10 -5z m10 -20 c0 -2 -10 -9 -22 -15 -22 -11 -22 -10
-4 4 21 17 26 19 26 11z m-113 -176 c-5 -4 -7 -14 -4 -23 9 -22 4 -20 -24 11
-13 14 -18 23 -11 19 7 -4 15 -1 18 8 5 12 9 13 19 3 8 -8 9 -14 2 -18z m70
-1 c-3 -8 -6 -5 -6 6 -1 11 2 17 5 13 3 -3 4 -12 1 -19z m-108 -44 c-6 -8 -4
-14 7 -18 10 -4 22 -1 27 6 6 9 7 8 3 -4 -3 -12 0 -18 10 -18 8 0 13 4 9 9 -3
5 0 13 6 17 8 4 9 3 5 -4 -4 -7 -1 -12 6 -12 10 0 11 -2 0 -8 -7 -5 -11 -15
-9 -23 2 -8 2 -11 0 -6 -3 4 -9 7 -14 7 -6 0 -8 -4 -4 -9 3 -5 0 -13 -6 -17
-9 -5 -10 0 -7 14 4 12 2 25 -3 28 -5 3 -9 -3 -10 -13 0 -11 -3 -13 -6 -5 -2
6 -10 9 -16 5 -7 -4 -5 2 3 12 14 17 14 18 -10 5 -22 -12 -24 -12 -12 2 9 11
10 18 2 23 -5 3 -10 1 -10 -5 0 -6 -4 -8 -10 -5 -21 13 -10 33 19 31 21 0 27
-4 20 -12z m-29 -134 c0 -5 -2 -10 -4 -10 -3 0 -8 5 -11 10 -3 6 -1 10 4 10 6
0 11 -4 11 -10z m25 0 c-3 -5 -1 -10 6 -10 10 0 10 -3 2 -11 -6 -6 -10 -17 -9
-23 2 -6 1 -8 -1 -3 -3 4 -9 7 -14 7 -6 0 -8 -4 -4 -9 3 -5 1 -13 -5 -16 -15
-9 -8 39 9 59 15 18 26 22 16 6z m-10 -209 c-6 -5 -25 10 -25 20 0 5 6 4 14
-3 8 -7 12 -15 11 -17z m-50 -11 c3 -5 1 -10 -4 -10 -6 0 -11 5 -11 10 0 6 2
10 4 10 3 0 8 -4 11 -10z m-55 -180 c0 -5 -5 -10 -11 -10 -5 0 -7 5 -4 10 3 6
8 10 11 10 2 0 4 -4 4 -10z m-85 -10 c3 -5 1 -10 -4 -10 -6 0 -11 5 -11 10 0
6 2 10 4 10 3 0 8 -4 11 -10z m32 -182 c-3 -8 -6 -5 -6 6 -1 11 2 17 5 13 3
-3 4 -12 1 -19z m-17 -6 c0 -5 -7 -9 -15 -9 -8 0 -12 4 -9 9 3 4 9 8 15 8 5 0
9 -4 9 -8z m20 -66 c0 -2 -9 -2 -20 1 -11 3 -20 9 -20 15 0 5 9 4 20 -2 11 -6
20 -12 20 -14z m-90 -51 c0 -28 -15 -41 -24 -20 -3 8 -1 17 5 21 6 3 8 13 5
21 -3 8 -1 11 4 8 6 -3 10 -17 10 -30z m31 -5 c6 0 8 4 4 9 -3 5 0 13 7 17 7
4 10 4 6 -1 -4 -4 -3 -14 2 -20 8 -9 4 -12 -12 -11 -13 0 -23 8 -24 16 0 9 1
10 3 3 3 -7 9 -13 14 -13z m59 14 c0 -2 -7 -4 -15 -4 -8 0 -15 4 -15 10 0 5 7
7 15 4 8 -4 15 -8 15 -10z m-145 -344 c-4 -6 -1 -17 5 -25 10 -12 10 -15 -1
-16 -45 -4 -57 -7 -68 -13 -19 -12 -12 -1 15 25 14 13 24 19 22 13 -2 -7 1
-12 7 -13 5 0 10 5 11 12 2 21 4 27 10 27 3 0 2 -5 -1 -10z m-12 -115 c-3 -9
-8 -14 -10 -11 -3 3 -2 9 2 15 9 16 15 13 8 -4z m-26 -17 c-3 -8 -6 -5 -6 6
-1 11 2 17 5 13 3 -3 4 -12 1 -19z m-4 -69 c-4 -15 -8 -17 -14 -8 -6 11 4 28
18 29 0 0 -1 -9 -4 -21z m-53 -114 c4 3 14 -3 21 -12 12 -15 12 -16 -1 -8 -21
13 -40 15 -40 4 0 -5 -4 -9 -10 -9 -12 0 -9 22 5 32 6 4 12 3 13 -2 2 -6 7 -8
12 -5z m26 -82 c-6 -6 -36 9 -36 18 0 5 9 4 20 -3 10 -7 18 -14 16 -15z m-88
-31 c9 7 14 8 10 4 -4 -5 -2 -16 5 -25 10 -14 10 -14 -5 -3 -11 9 -18 10 -23
2 -9 -15 -32 -12 -32 5 0 8 4 15 9 15 4 0 9 8 9 18 1 11 3 9 6 -6 4 -20 7 -21
21 -10z m29 22 c-3 -3 -12 -4 -19 -1 -8 3 -5 6 6 6 11 1 17 -2 13 -5z m-67
-82 c0 -8 -1 -13 -3 -11 -1 2 -9 12 -16 22 -12 15 -12 17 3 11 9 -3 16 -13 16
-22z m70 -39 c0 -2 -13 3 -30 12 -16 9 -30 22 -30 30 0 11 9 7 30 -12 17 -14
30 -28 30 -30z m-67 0 c-7 -2 -19 -2 -25 0 -7 3 -2 5 12 5 14 0 19 -2 13 -5z
m40 -23 c-3 -11 -9 -20 -15 -20 -5 0 -4 9 2 20 6 11 12 20 14 20 2 0 2 -9 -1
-20z m-113 -52 c0 -9 4 -8 10 2 5 8 10 10 10 4 0 -6 11 -16 24 -24 14 -7 22
-18 20 -25 -6 -14 -34 -16 -50 -3 -8 5 -14 1 -17 -14 -5 -19 -9 -20 -19 -10
-11 11 -10 16 5 27 15 11 16 17 7 34 -7 14 -7 21 0 21 5 0 10 -6 10 -12z m61
-5 c13 -16 12 -17 -3 -4 -10 7 -18 15 -18 17 0 8 8 3 21 -13z m-149 -348 c3
-13 2 -23 -2 -22 -4 1 -17 -9 -29 -23 -13 -14 -20 -19 -16 -12 3 6 1 12 -4 12
-6 0 -11 8 -11 18 0 14 2 15 10 2 7 -12 12 -12 22 -2 10 10 10 15 -2 23 -13 9
-12 10 3 5 11 -3 17 0 17 9 0 23 7 18 12 -10z m33 -25 c-4 -6 -1 -17 5 -25 10
-12 10 -15 -1 -16 -45 -4 -57 -7 -68 -13 -19 -12 -12 -1 15 25 14 13 24 19 22
13 -2 -7 1 -12 7 -13 5 0 10 5 11 12 2 21 4 27 10 27 3 0 2 -5 -1 -10z m23
-95 c-3 -3 -9 2 -12 12 -6 14 -5 15 5 6 7 -7 10 -15 7 -18z m-17 -22 c13 -16
12 -17 -3 -4 -13 9 -18 10 -18 2 0 -7 -4 -9 -10 -6 -5 3 -10 2 -10 -4 0 -5 5
-12 10 -14 6 -3 5 -4 -2 -3 -20 4 -21 34 -1 39 10 3 19 5 19 6 1 0 8 -7 15
-16z m-31 -78 c4 3 14 -3 21 -12 12 -15 12 -16 -1 -8 -23 14 -40 15 -40 2 0
-7 -4 -6 -10 3 -6 9 -5 17 3 22 7 4 14 3 15 -2 2 -6 7 -8 12 -5z m-33 -91 c-3
-3 -12 -4 -19 -1 -8 3 -5 6 6 6 11 1 17 -2 13 -5z m-17 -105 l25 -20 -32 16
c-18 8 -33 18 -33 20 0 10 16 4 40 -16z m-53 -15 c-3 -3 -12 -4 -19 -1 -8 3
-5 6 6 6 11 1 17 -2 13 -5z m-73 -70 c9 -8 16 -11 16 -4 0 6 10 2 22 -10 12
-11 25 -20 30 -20 4 0 8 -5 8 -11 0 -5 -4 -8 -9 -5 -5 3 -12 -2 -15 -11 -4 -9
-1 -20 6 -24 17 -11 5 -21 -15 -13 -13 4 -14 10 -7 24 15 28 12 39 -13 45 -13
4 -28 15 -35 26 -15 23 -9 25 12 3z m-4 -129 c7 -9 8 -15 2 -15 -5 0 -12 7
-16 15 -3 8 -4 15 -2 15 2 0 9 -7 16 -15z m-5 -145 c-3 -5 3 -10 12 -12 15 -3
14 -5 -5 -10 -12 -3 -20 -2 -16 3 3 5 1 9 -4 9 -5 0 -9 6 -9 14 0 8 6 12 14 9
7 -3 11 -9 8 -13z m-65 -47 c0 -13 2 -13 18 -2 15 12 16 12 5 -2 -7 -9 -10
-19 -6 -22 3 -4 1 -7 -5 -7 -7 0 -12 5 -12 11 0 5 -5 7 -10 4 -6 -4 -10 -3 -9
2 3 20 -2 34 -11 28 -5 -3 -7 -13 -4 -23 5 -14 3 -14 -6 2 -10 14 -10 20 0 26
18 11 40 1 40 -17z m74 -23 c-6 -6 -10 -3 -10 10 0 13 4 16 10 10 7 -7 7 -13
0 -20z m-44 -45 c0 -8 -7 -15 -15 -15 -13 0 -14 3 -3 15 16 18 18 18 18 0z"/>
<path d="M20792 1258 c5 -15 28 -23 28 -10 0 5 -7 13 -16 16 -10 4 -14 1 -12
-6z"/>
<path d="M23434 9916 c-10 -8 -17 -16 -14 -19 3 -2 14 4 24 14 23 22 18 25
-10 5z"/>
<path d="M23457 9877 c-4 -10 -12 -14 -22 -11 -8 3 -15 1 -15 -6 0 -6 5 -8 10
-5 6 3 10 1 10 -5 0 -7 7 -5 16 4 8 9 14 22 12 28 -3 7 -7 6 -11 -5z"/>
<path d="M23402 9840 c0 -14 2 -19 5 -12 2 6 2 18 0 25 -3 6 -5 1 -5 -13z"/>
<path d="M23373 9624 c10 -10 -36 -42 -53 -37 -13 4 -13 4 0 -6 13 -10 13 -12
0 -20 -8 -6 -11 -14 -6 -18 4 -4 15 2 23 14 12 18 19 20 33 13 14 -7 20 -5 25
7 3 10 2 19 -4 21 -5 2 -7 10 -4 18 3 8 -1 14 -8 14 -7 0 -10 -3 -6 -6z"/>
<path d="M23303 9460 c-1 -27 2 -50 6 -50 5 0 8 23 8 50 0 28 -3 50 -6 50 -4
0 -8 -22 -8 -50z"/>
<path d="M23235 9340 c3 -5 8 -10 11 -10 2 0 4 5 4 10 0 6 -5 10 -11 10 -5 0
-7 -4 -4 -10z"/>
<path d="M23230 9310 c0 -5 5 -10 11 -10 5 0 7 5 4 10 -3 6 -8 10 -11 10 -2 0
-4 -4 -4 -10z"/>
<path d="M23249 9273 c-11 -28 -6 -53 10 -53 6 0 9 -6 7 -12 -1 -7 -1 -10 1
-5 3 4 10 4 16 0 8 -5 8 -2 0 9 -7 8 -10 18 -6 22 4 4 0 4 -10 0 -12 -4 -17
-1 -17 9 0 20 16 31 25 17 3 -5 11 -10 17 -10 6 0 4 8 -5 18 -10 10 -14 22
-10 25 3 4 1 7 -6 7 -6 0 -16 -12 -22 -27z"/>
<path d="M23218 9273 c7 -3 16 -2 19 1 4 3 -2 6 -13 5 -11 0 -14 -3 -6 -6z"/>
<path d="M23183 9163 c-3 -10 -9 -22 -11 -28 -3 -5 1 -4 10 3 11 9 18 10 23 2
3 -5 12 -10 18 -10 7 1 2 9 -10 19 -12 10 -19 21 -16 25 4 3 3 6 -1 6 -3 0 -9
-8 -13 -17z"/>
<path d="M23120 9030 c20 -13 33 -13 25 0 -3 6 -14 10 -23 10 -15 0 -15 -2 -2
-10z"/>
<path d="M23206 8961 c-4 -5 0 -12 6 -14 12 -5 -17 -11 -35 -8 -5 1 -6 -3 -3
-8 4 -6 17 -6 37 1 24 8 27 13 18 24 -14 16 -16 17 -23 5z"/>
<path d="M23107 8939 c7 -7 15 -10 18 -7 3 3 -2 9 -12 12 -14 6 -15 5 -6 -5z"/>
<path d="M23106 8808 c3 -5 10 -6 15 -3 13 9 11 12 -6 12 -8 0 -12 -4 -9 -9z"/>
<path d="M23042 8764 c-7 -8 -8 -14 -3 -14 10 0 25 19 20 25 -2 1 -10 -3 -17
-11z"/>
<path d="M23067 8730 c-6 -24 17 -58 27 -41 4 6 2 19 -6 28 -9 12 -9 15 0 9 6
-4 12 -3 12 2 0 19 -28 21 -33 2z"/>
<path d="M23116 8712 c5 -17 -17 -51 -30 -48 -6 2 -8 1 -3 -1 4 -3 4 -9 1 -15
-4 -5 5 -2 20 7 14 10 26 25 26 35 0 10 3 20 8 23 4 2 2 2 -5 1 -6 -2 -14 0
-16 4 -2 4 -2 1 -1 -6z"/>
<path d="M23020 8698 c0 -2 9 -11 20 -21 11 -9 20 -13 20 -7 0 5 -9 14 -20 20
-11 6 -20 9 -20 8z"/>
<path d="M23013 8655 c0 -8 4 -12 9 -9 5 3 6 10 3 15 -9 13 -12 11 -12 -6z"/>
<path d="M23055 8620 c3 -5 8 -10 11 -10 2 0 4 5 4 10 0 6 -5 10 -11 10 -5 0
-7 -4 -4 -10z"/>
<path d="M22996 8605 c-3 -9 1 -18 9 -21 8 -4 12 -11 8 -17 -3 -5 -2 -7 4 -4
13 8 10 50 -4 54 -6 2 -13 -3 -17 -12z"/>
<path d="M23047 8582 c3 -7 9 -10 12 -5 3 4 10 11 15 15 4 4 -1 6 -12 5 -12
-1 -18 -6 -15 -15z"/>
<path d="M23060 8525 c0 -8 4 -15 8 -15 5 0 9 7 9 15 0 8 -4 15 -9 15 -4 0 -8
-7 -8 -15z"/>
<path d="M23033 8518 c3 -9 1 -18 -5 -20 -6 -2 -9 -12 -7 -23 4 -16 5 -16 16
7 7 17 8 29 1 39 -8 11 -9 11 -5 -3z"/>
<path d="M22985 8469 c-4 -6 -5 -12 -2 -15 2 -3 7 2 10 11 7 17 1 20 -8 4z"/>
<path d="M22943 8455 c0 -8 4 -12 9 -9 5 3 6 10 3 15 -9 13 -12 11 -12 -6z"/>
<path d="M23020 8440 c20 -13 33 -13 25 0 -3 6 -14 10 -23 10 -15 0 -15 -2 -2
-10z"/>
<path d="M22962 8395 c4 -4 3 -14 -4 -22 -6 -7 -8 -16 -5 -19 3 -3 10 3 16 15
8 15 8 22 -1 27 -7 4 -10 4 -6 -1z"/>
<path d="M22950 8326 c0 -2 7 -7 16 -10 8 -3 12 -2 9 4 -6 10 -25 14 -25 6z"/>
<path d="M22890 8255 c-7 -9 -11 -17 -9 -20 3 -2 10 5 17 15 14 24 10 26 -8 5z"/>
<path d="M22966 8255 c-11 -8 -15 -15 -9 -15 6 0 16 7 23 15 16 19 11 19 -14
0z"/>
<path d="M22940 8211 c0 -11 5 -23 12 -27 7 -4 8 -3 4 4 -4 7 -3 12 3 12 5 0
13 -5 16 -10 10 -16 -23 -24 -40 -10 -13 11 -14 10 -10 -3 9 -22 44 -28 53 -9
14 28 8 47 -12 44 -11 -2 -15 1 -11 7 3 6 1 11 -4 11 -6 0 -11 -9 -11 -19z"/>
<path d="M22886 8169 c3 -5 12 -9 21 -9 19 0 9 13 -12 16 -8 1 -13 -2 -9 -7z"/>
<path d="M22816 8048 c3 -5 10 -6 15 -3 13 9 11 12 -6 12 -8 0 -12 -4 -9 -9z"/>
<path d="M22800 7959 c0 -5 5 -7 10 -4 6 3 10 8 10 11 0 2 -4 4 -10 4 -5 0
-10 -5 -10 -11z"/>
<path d="M22800 7925 c0 -7 30 -13 34 -7 3 4 -4 9 -15 9 -10 1 -19 0 -19 -2z"/>
<path d="M22856 7918 c3 -4 0 -8 -7 -8 -7 0 -5 -8 6 -20 13 -14 22 -17 29 -10
17 17 16 39 -2 33 -9 -4 -13 -2 -9 4 3 5 0 10 -8 10 -8 0 -12 -4 -9 -9z"/>
<path d="M22786 7884 c-8 -20 -8 -24 2 -24 4 0 8 9 9 20 2 24 -3 26 -11 4z"/>
<path d="M22803 7792 c-20 -7 -20 -8 -6 -27 14 -18 15 -18 9 -1 -4 13 -2 17 7
13 8 -3 14 1 14 9 0 8 -1 14 -1 13 -1 -1 -11 -4 -23 -7z"/>
<path d="M22855 7761 c-3 -5 -1 -12 5 -16 5 -3 10 1 10 9 0 18 -6 21 -15 7z"/>
<path d="M22694 7628 c1 -7 11 -15 21 -16 11 -3 15 0 10 7 -3 6 -10 9 -15 6
-4 -3 -11 0 -13 5 -3 6 -4 5 -3 -2z"/>
<path d="M22738 7563 c7 -3 16 -2 19 1 4 3 -2 6 -13 5 -11 0 -14 -3 -6 -6z"/>
<path d="M22707 7484 c-3 -3 -3 -12 0 -20 3 -8 1 -14 -5 -14 -5 0 -13 -8 -17
-17 -4 -12 5 -7 24 11 17 16 28 33 25 38 -6 9 -18 11 -27 2z"/>
<path d="M22660 7444 c0 -8 5 -12 10 -9 6 4 8 11 5 16 -9 14 -15 11 -15 -7z"/>
<path d="M22622 7409 c-8 -12 -9 -18 -4 -15 6 3 12 0 15 -6 2 -7 4 -1 4 15 0
15 0 27 -1 27 -1 0 -7 -9 -14 -21z"/>
<path d="M22650 7370 c-13 -9 -13 -10 0 -10 13 0 13 -1 0 -11 -12 -8 -12 -10
-1 -7 8 2 15 12 17 21 3 20 3 19 -16 7z"/>
<path d="M22616 7314 c-5 -14 -4 -15 9 -4 17 14 19 20 6 20 -5 0 -12 -7 -15
-16z"/>
<path d="M22580 7230 c-9 -6 -10 -10 -3 -10 6 0 15 5 18 10 8 12 4 12 -15 0z"/>
<path d="M22596 7185 c4 -8 8 -15 10 -15 2 0 4 7 4 15 0 8 -4 15 -10 15 -5 0
-7 -7 -4 -15z"/>
<path d="M22624 7188 c-5 -8 -2 -9 11 -4 15 5 16 4 6 -8 -7 -8 -8 -17 -3 -20
9 -6 22 15 22 35 0 13 -28 11 -36 -3z"/>
<path d="M22565 7170 c-3 -5 -3 -10 1 -10 4 0 -1 -7 -12 -15 -18 -14 -18 -14
3 -9 13 4 21 13 20 25 -1 22 -3 23 -12 9z"/>
<path d="M22494 7042 c3 -5 0 -13 -6 -15 -8 -3 -6 -6 5 -6 19 -1 23 14 5 25
-6 4 -8 3 -4 -4z"/>
<path d="M22516 6992 c-2 -4 4 -8 15 -8 10 0 19 4 19 8 0 4 -6 8 -14 8 -8 0
-17 -4 -20 -8z"/>
<path d="M22450 6876 c0 -2 7 -6 15 -10 8 -3 15 -1 15 4 0 6 -7 10 -15 10 -8
0 -15 -2 -15 -4z"/>
<path d="M22461 6834 c0 -11 3 -14 6 -6 3 7 2 16 -1 19 -3 4 -6 -2 -5 -13z"/>
<path d="M22488 6833 c7 -3 16 -2 19 1 4 3 -2 6 -13 5 -11 0 -14 -3 -6 -6z"/>
<path d="M22480 6795 c0 -8 4 -15 10 -15 5 0 7 7 4 15 -4 8 -8 15 -10 15 -2 0
-4 -7 -4 -15z"/>
<path d="M22440 6754 c0 -8 5 -12 10 -9 6 3 10 10 10 16 0 5 -4 9 -10 9 -5 0
-10 -7 -10 -16z"/>
<path d="M22468 6723 c7 -3 16 -2 19 1 4 3 -2 6 -13 5 -11 0 -14 -3 -6 -6z"/>
<path d="M22442 6647 c-8 -10 -6 -13 8 -14 13 -1 17 3 13 13 -6 17 -8 17 -21
1z"/>
<path d="M22430 6611 c0 -6 4 -12 10 -16 5 -3 6 -13 3 -22 -4 -11 -3 -14 5 -9
15 9 16 36 1 36 -5 0 -7 5 -4 10 3 6 1 10 -4 10 -6 0 -11 -4 -11 -9z"/>
<path d="M22390 6569 c-11 -8 -9 -9 10 -4 20 6 23 5 13 -6 -19 -19 -16 -29 10
-29 12 0 18 4 12 8 -5 4 -10 13 -10 21 0 19 -16 23 -35 10z"/>
<path d="M22367 6479 c6 -6 9 -18 6 -27 -4 -10 -2 -13 5 -8 18 11 14 33 -5 41
-14 5 -15 3 -6 -6z"/>
<path d="M22343 6433 c-15 -5 -17 -23 -4 -23 5 0 11 7 15 15 3 8 4 15 3 14 -1
0 -8 -3 -14 -6z"/>
<path d="M22090 5385 c0 -8 2 -15 4 -15 2 0 6 7 10 15 3 8 1 15 -4 15 -6 0
-10 -7 -10 -15z"/>
<path d="M22004 5332 c3 -5 0 -13 -6 -15 -9 -4 -10 -6 -1 -6 17 -1 25 16 12
25 -7 4 -9 3 -5 -4z"/>
<path d="M21994 5282 c0 -9 -5 -16 -11 -14 -7 1 -13 -2 -13 -8 0 -5 5 -10 11
-10 7 0 5 -9 -5 -24 -9 -14 -13 -32 -10 -41 4 -8 1 -22 -6 -30 -10 -12 -10
-18 0 -30 13 -15 30 -12 30 7 0 5 -7 8 -15 4 -20 -7 -19 0 4 33 12 17 18 36
14 49 -4 18 -2 21 13 16 14 -4 16 -3 5 4 -8 6 -11 18 -7 30 4 11 3 23 -2 26
-6 3 -9 -2 -8 -12z"/>
<path d="M21995 5180 c-3 -5 1 -10 10 -10 9 0 13 5 10 10 -3 6 -8 10 -10 10
-2 0 -7 -4 -10 -10z"/>
<path d="M21917 5123 c-9 -9 -9 -43 1 -43 4 0 7 11 7 25 0 14 0 25 -1 25 0 0
-4 -3 -7 -7z"/>
<path d="M21956 5065 c4 -8 11 -15 16 -15 6 0 5 6 -2 15 -7 8 -14 15 -16 15
-2 0 -1 -7 2 -15z"/>
<path d="M21901 5052 c0 -10 3 -12 5 -5 3 7 12 9 20 6 8 -3 14 -1 14 4 0 5 -9
9 -20 10 -13 1 -20 -4 -19 -15z"/>
<path d="M21934 5009 c-3 -6 -2 -15 3 -20 5 -5 9 -1 9 11 0 23 -2 24 -12 9z"/>
<path d="M21960 4980 c0 -5 7 -7 15 -4 8 4 15 8 15 10 0 2 -7 4 -15 4 -8 0
-15 -4 -15 -10z"/>
<path d="M21885 4920 c3 -5 8 -10 11 -10 2 0 4 5 4 10 0 6 -5 10 -11 10 -5 0
-7 -4 -4 -10z"/>
<path d="M21887 4889 c7 -7 15 -10 18 -7 3 3 -2 9 -12 12 -14 6 -15 5 -6 -5z"/>
<path d="M21856 4846 c4 -10 18 -16 41 -16 21 0 32 4 28 10 -4 6 -16 8 -26 5
-11 -4 -27 -1 -35 6 -12 10 -13 9 -8 -5z"/>
<path d="M21750 4381 c0 -6 5 -11 11 -11 5 0 7 -4 4 -10 -3 -5 -1 -10 4 -10
16 0 13 16 -4 30 -10 9 -15 9 -15 1z"/>
<path d="M21733 4327 c-10 -22 -9 -23 13 -19 21 4 23 7 12 21 -7 9 -13 17 -14
19 0 1 -6 -8 -11 -21z"/>
<path d="M21715 4269 c-4 -6 -5 -13 -2 -16 7 -7 27 6 27 18 0 12 -17 12 -25
-2z"/>
<path d="M21654 4213 c-3 -10 -10 -26 -15 -36 -11 -20 6 -51 22 -41 15 9 10
26 -6 20 -20 -7 -19 4 5 34 22 28 25 40 10 40 -6 0 -13 -8 -16 -17z"/>
<path d="M21675 4200 c-3 -5 1 -10 10 -10 9 0 13 5 10 10 -3 6 -8 10 -10 10
-2 0 -7 -4 -10 -10z"/>
<path d="M21606 4187 c3 -10 9 -15 12 -12 3 3 0 11 -7 18 -10 9 -11 8 -5 -6z"/>
<path d="M21587 4160 c7 -10 8 -21 3 -30 -9 -14 -5 -30 8 -30 13 0 6 50 -8 63
-12 10 -12 9 -3 -3z"/>
<path d="M21630 4096 c0 -2 8 -10 18 -17 15 -13 16 -12 3 4 -13 16 -21 21 -21
13z"/>
<path d="M21581 4072 c0 -10 3 -12 5 -5 3 7 12 9 20 6 8 -3 14 -1 14 4 0 5 -9
9 -20 10 -13 1 -20 -4 -19 -15z"/>
<path d="M21621 4011 c-9 -6 -10 -11 -2 -15 6 -4 11 -2 11 4 0 6 5 8 12 4 7
-4 8 -3 4 4 -8 14 -7 14 -25 3z"/>
<path d="M21551 3891 c-9 -6 -10 -11 -2 -15 6 -4 11 -2 11 4 0 6 5 8 12 4 7
-4 8 -3 4 4 -8 14 -7 14 -25 3z"/>
<path d="M21501 3809 c-1 -9 5 -19 12 -22 8 -3 14 1 14 9 0 7 -4 11 -8 8 -4
-2 -10 2 -12 8 -4 8 -6 7 -6 -3z"/>
<path d="M21485 3660 c-4 -11 -11 -18 -16 -14 -6 3 -5 -3 3 -15 8 -13 23 -21
38 -20 l25 0 -24 10 c-18 7 -22 14 -17 34 8 30 0 34 -9 5z"/>
<path d="M21446 3533 c-6 -14 -5 -15 5 -6 7 7 10 15 7 18 -3 3 -9 -2 -12 -12z"/>
<path d="M21402 3517 c10 -8 15 -17 11 -20 -3 -4 1 -7 11 -7 21 0 12 16 -17
30 -20 10 -20 10 -5 -3z"/>
<path d="M21465 3520 c-3 -6 1 -7 9 -4 18 7 21 14 7 14 -6 0 -13 -4 -16 -10z"/>
<path d="M21481 3491 c-8 -11 -21 -17 -30 -14 -14 4 -14 3 -1 -5 9 -7 19 -7
26 -2 6 6 14 7 17 3 4 -3 7 3 7 15 0 27 -2 27 -19 3z"/>
<path d="M21400 3460 c-8 -5 -11 -13 -6 -17 5 -4 11 -2 13 5 3 6 10 9 15 6 7
-4 8 -2 4 4 -9 14 -7 14 -26 2z"/>
<path d="M21376 3413 c-6 -14 -5 -15 5 -6 7 7 10 15 7 18 -3 3 -9 -2 -12 -12z"/>
<path d="M21350 3380 c0 -5 5 -10 11 -10 5 0 7 5 4 10 -3 6 -8 10 -11 10 -2 0
-4 -4 -4 -10z"/>
<path d="M21320 3330 c0 -5 5 -10 11 -10 5 0 7 5 4 10 -3 6 -8 10 -11 10 -2 0
-4 -4 -4 -10z"/>
<path d="M21340 3245 c-11 -13 -10 -14 4 -9 9 3 16 10 16 15 0 13 -6 11 -20
-6z"/>
<path d="M21314 3169 c-3 -6 -2 -15 3 -20 5 -5 9 -1 9 11 0 23 -2 24 -12 9z"/>
<path d="M21250 3081 c0 -5 7 -11 14 -14 10 -4 13 -1 9 9 -6 15 -23 19 -23 5z"/>
<path d="M21240 3041 c0 -6 4 -13 10 -16 6 -3 7 1 4 9 -7 18 -14 21 -14 7z"/>
<path d="M21265 3040 c3 -5 8 -10 11 -10 2 0 4 5 4 10 0 6 -5 10 -11 10 -5 0
-7 -4 -4 -10z"/>
<path d="M21203 2884 c-15 -15 -19 -20 -9 -13 18 12 19 12 13 -3 -5 -14 -1
-18 14 -18 19 0 19 1 4 16 -14 15 -14 17 2 30 10 7 15 14 11 14 -4 0 -20 -12
-35 -26z"/>
<path d="M21255 2869 c-11 -16 -1 -19 13 -3 7 8 8 14 3 14 -5 0 -13 -5 -16
-11z"/>
<path d="M21222 2828 c2 -6 11 -13 19 -16 12 -3 12 -2 0 6 -11 8 -11 10 0 15
10 4 8 6 -4 6 -10 1 -17 -4 -15 -11z"/>
<path d="M21185 2749 c-11 -16 -1 -19 13 -3 7 8 8 14 3 14 -5 0 -13 -5 -16
-11z"/>
<path d="M21210 2720 c6 -11 7 -20 3 -21 -4 0 2 -4 15 -10 14 -5 20 -14 16
-20 -4 -7 -1 -10 7 -7 15 5 26 40 12 37 -21 -4 -31 3 -36 21 -3 11 -10 20 -16
20 -9 0 -9 -5 -1 -20z"/>
<path d="M21191 2704 c0 -11 3 -14 6 -6 3 7 2 16 -1 19 -3 4 -6 -2 -5 -13z"/>
<path d="M21167 2566 c-4 -10 -3 -15 3 -11 6 3 10 1 10 -5 0 -6 5 -8 10 -5 6
3 10 11 10 16 0 6 -4 8 -9 5 -5 -4 -11 -1 -13 6 -3 7 -7 5 -11 -6z"/>
<path d="M21086 2494 c-22 -21 -20 -31 2 -12 9 9 24 18 32 21 12 4 12 6 -2 6
-9 1 -24 -6 -32 -15z"/>
<path d="M21066 2448 c3 -4 9 -8 15 -8 5 0 9 4 9 8 0 5 -7 9 -15 9 -8 0 -12
-4 -9 -9z"/>
<path d="M21110 2445 c-11 -13 -10 -14 4 -9 9 3 16 10 16 15 0 13 -6 11 -20
-6z"/>
<path d="M21067 2404 c5 -13 3 -15 -7 -9 -9 5 -11 4 -6 -3 4 -7 11 -12 17 -12
12 0 12 27 -1 35 -6 4 -7 -1 -3 -11z"/>
<path d="M20987 2269 c7 -7 15 -10 18 -7 3 3 -2 9 -12 12 -14 6 -15 5 -6 -5z"/>
<path d="M20997 2229 c7 -7 15 -10 18 -7 3 3 -2 9 -12 12 -14 6 -15 5 -6 -5z"/>
<path d="M21022 2212 c-7 -5 -14 -19 -17 -31 -4 -19 -2 -21 11 -10 8 6 12 14
9 17 -3 3 0 11 6 19 13 15 10 16 -9 5z"/>
<path d="M20973 2145 c-3 -9 -3 -18 -1 -21 3 -3 8 4 11 16 6 23 -1 27 -10 5z"/>
<path d="M20952 2092 c-7 -5 -14 -19 -17 -32 -2 -12 -3 -21 -1 -19 3 2 4 7 3
10 -1 4 7 16 17 28 20 22 20 26 -2 13z"/>
<path d="M20970 2055 c-11 -13 -10 -14 4 -9 10 4 16 1 16 -9 0 -9 -9 -14 -27
-13 -19 1 -29 -5 -31 -16 -2 -10 1 -18 7 -18 6 0 8 7 5 15 -5 13 -2 14 21 5
34 -13 32 -13 37 8 3 10 0 26 -7 35 -11 15 -14 16 -25 2z"/>
<path d="M20903 2025 c-3 -9 -3 -18 -1 -21 3 -3 8 4 11 16 6 23 -1 27 -10 5z"/>
<path d="M21020 2030 c0 -5 -10 -20 -22 -32 -17 -17 -18 -20 -4 -15 10 4 20 7
22 7 2 0 4 8 4 18 0 14 2 15 10 2 7 -12 12 -12 22 -2 10 10 10 15 -2 22 -19
13 -30 12 -30 0z"/>
<path d="M20917 1831 c3 -13 -2 -21 -15 -25 -11 -4 -23 -14 -27 -24 -3 -9 -3
-13 1 -9 4 4 13 2 20 -3 9 -8 15 -3 25 19 8 18 18 27 27 23 12 -4 12 -1 3 16
-15 28 -41 29 -34 3z m3 -35 c0 -3 -4 -8 -10 -11 -5 -3 -10 -1 -10 4 0 6 5 11
10 11 6 0 10 -2 10 -4z"/>
<path d="M20845 1696 c0 -19 3 -32 7 -30 4 3 8 12 8 20 0 8 5 12 10 9 14 -9
13 8 -2 23 -19 19 -23 15 -23 -22z"/>
<path d="M20810 1665 c-11 -13 -10 -14 4 -9 9 3 16 10 16 15 0 13 -6 11 -20
-6z"/>
<path d="M20853 1645 c-16 -24 -18 -33 -8 -29 8 4 15 10 15 15 0 16 18 9 22
-8 2 -12 6 -14 11 -6 4 6 1 17 -6 25 -8 7 -12 19 -9 26 7 21 -2 13 -25 -23z"/>
<path d="M20778 1585 c-3 -14 -1 -28 3 -31 5 -3 9 2 9 11 0 10 5 13 13 9 7 -5
7 -1 -3 12 -8 10 -15 20 -16 22 -1 2 -4 -9 -6 -23z"/>
<path d="M20827 1543 c8 -6 9 -14 3 -23 -7 -10 -10 -11 -10 -2 0 14 -26 17
-34 3 -3 -5 2 -8 12 -7 9 0 16 -4 15 -10 -2 -9 4 -9 23 0 28 13 28 39 -1 44
-13 2 -16 0 -8 -5z"/>
<path d="M20766 1415 c-9 -23 -8 -25 9 -25 17 0 19 9 6 28 -7 11 -10 10 -15
-3z"/>
<path d="M20695 1280 c-3 -5 1 -10 10 -10 9 0 13 5 10 10 -3 6 -8 10 -10 10
-2 0 -7 -4 -10 -10z"/>
<path d="M20702 1232 c-7 -5 -14 -19 -17 -32 -2 -12 -3 -21 -1 -19 3 2 4 7 3
10 -1 4 7 16 17 28 20 22 20 26 -2 13z"/>
<path d="M20653 1165 c-3 -9 -3 -18 -1 -21 3 -3 8 4 11 16 6 23 -1 27 -10 5z"/>
<path d="M20630 1110 c-9 -6 -10 -10 -3 -10 6 0 15 5 18 10 8 12 4 12 -15 0z"/>
<path d="M20613 1075 c0 -8 4 -12 9 -9 5 3 6 10 3 15 -9 13 -12 11 -12 -6z"/>
<path d="M20649 1073 c-13 -16 -12 -17 4 -4 16 13 21 21 13 21 -2 0 -10 -8
-17 -17z"/>
<path d="M20670 1057 c0 -9 -10 -14 -27 -13 -14 0 -27 -5 -29 -12 -1 -7 0 -8
2 -3 4 6 14 7 30 0 14 -5 27 -9 28 -9 9 0 13 41 5 46 -5 3 -9 -1 -9 -9z"/>
<path d="M20700 1050 c0 -5 -10 -20 -22 -32 -17 -17 -18 -20 -4 -15 10 4 20 7
22 7 2 0 4 8 4 18 0 14 2 15 10 2 7 -12 12 -12 22 -2 10 10 10 15 -2 22 -19
13 -30 12 -30 0z"/>
<path d="M20580 910 c8 -5 20 -10 25 -10 6 0 3 5 -5 10 -8 5 -19 10 -25 10 -5
0 -3 -5 5 -10z"/>
<path d="M20596 855 c3 -8 -5 -24 -18 -37 -13 -13 -22 -22 -19 -21 2 2 10 -2
17 -8 9 -8 11 -5 7 10 -3 13 -1 21 6 21 7 0 9 -5 5 -12 -4 -7 -3 -8 4 -4 7 4
12 14 12 22 0 8 5 12 10 9 14 -9 13 8 -2 23 -17 17 -29 15 -22 -3z"/>
<path d="M20602 785 c-22 -35 -16 -49 9 -19 12 14 14 14 19 -2 4 -11 9 -14 13
-7 4 6 1 17 -6 25 -8 7 -12 19 -9 26 7 21 -2 13 -26 -23z"/>
<path d="M20525 716 c0 -19 3 -32 7 -30 4 3 8 12 8 20 0 9 5 12 11 8 8 -4 8 0
0 15 -17 30 -26 26 -26 -13z"/>
<path d="M20490 685 c-11 -13 -10 -14 4 -9 9 3 16 10 16 15 0 13 -6 11 -20 -6z"/>
<path d="M20515 551 c-5 -17 -10 -19 -20 -11 -17 14 -42 3 -49 -23 -5 -20 -4
-20 8 -5 7 10 17 14 21 10 5 -4 5 -1 0 7 -5 9 -3 12 6 9 8 -3 13 -11 11 -17
-1 -8 5 -7 20 1 13 7 25 14 26 15 2 1 -1 9 -6 19 -9 16 -10 15 -17 -5z"/>
<path d="M20426 441 c-3 -5 2 -15 12 -22 15 -12 16 -12 5 2 -7 9 -10 19 -6 22
3 4 4 7 0 7 -3 0 -8 -4 -11 -9z"/>
<path d="M20404 396 c1 -8 5 -18 8 -22 4 -3 5 1 4 10 -1 8 -5 18 -8 22 -4 3
-5 -1 -4 -10z"/>
<path d="M20511 366 c-9 -10 -8 -15 3 -19 8 -3 17 1 20 8 7 20 -9 28 -23 11z"/>
<path d="M20380 260 c-8 -16 -8 -20 4 -20 8 0 18 5 22 12 4 7 3 8 -4 4 -7 -4
-12 -3 -12 3 0 5 6 12 13 14 9 4 9 6 0 6 -7 1 -17 -8 -23 -19z"/>
<path d="M20350 170 c0 -6 4 -9 9 -6 5 4 12 1 14 -4 3 -6 4 -5 3 2 -3 15 -26
23 -26 8z"/>
<path d="M20344 37 c0 -13 5 -24 11 -25 5 0 20 -3 31 -7 14 -4 23 -2 27 8 3 7
-1 14 -9 15 -8 1 -21 3 -29 4 -8 1 -15 7 -15 15 0 7 -4 13 -8 13 -4 0 -8 -10
-8 -23z"/>
</g>
</svg>
