<?xml version="1.0" encoding="utf-8"?>
<!-- Generator: Adobe Illustrator 17.0.0, SVG Export Plug-In . SVG Version: 6.00 Build 0)  -->
<!DOCTYPE svg PUBLIC "-//W3C//DTD SVG 1.1//EN" "http://www.w3.org/Graphics/SVG/1.1/DTD/svg11.dtd">
<svg version="1.1" id="Layer_1" xmlns="http://www.w3.org/2000/svg" xmlns:xlink="http://www.w3.org/1999/xlink" x="0px" y="0px"
	 width="820px" height="240px" viewBox="0 0 820 240" enable-background="new 0 0 820 240" xml:space="preserve">
<g>
	
		<linearGradient id="SVGID_1_" gradientUnits="userSpaceOnUse" x1="934.2798" y1="-58.714" x2="410.1377" y2="-582.8561" gradientTransform="matrix(-1 0 0 -1 1082.2087 -200.7851)">
		<stop  offset="0" style="stop-color:#53F6C6"/>
		<stop  offset="1" style="stop-color:#551C86"/>
	</linearGradient>
	<path fill="url(#SVGID_1_)" d="M0,10C0,4.477,4.477,0,10,0l800,0c5.523,0,10,4.477,10,10v220c0,5.523-4.477,10-10,10H10
		c-5.523,0-10-4.477-10-10L0,10z"/>
	<g>
		<g>
			<g>
				<path fill="#FFFFFF" d="M206.337,116.304c4.946,2.101,7.42,5.997,7.42,11.69c0,4.294-1.424,7.606-4.27,9.939
					c-2.847,2.334-6.557,3.5-11.13,3.5h-17.43c-0.467,0-0.7-0.232-0.7-0.7V93.135c0-0.466,0.233-0.7,0.7-0.7h16.87
					c4.853,0,8.621,1.109,11.305,3.325c2.683,2.217,4.025,5.449,4.025,9.695c0,5.04-2.264,8.517-6.79,10.43
					C206.103,116.024,206.103,116.164,206.337,116.304z M186.947,98.524v14.771c0,0.187,0.093,0.28,0.28,0.28h10.57
					c2.706,0,4.841-0.677,6.405-2.03c1.563-1.354,2.345-3.196,2.345-5.53c0-2.38-0.782-4.27-2.345-5.67
					c-1.564-1.4-3.699-2.1-6.405-2.1h-10.57C187.04,98.245,186.947,98.338,186.947,98.524z M204.692,133.349
					c1.563-1.47,2.345-3.465,2.345-5.984c0-2.521-0.794-4.516-2.38-5.985c-1.587-1.47-3.757-2.205-6.51-2.205h-10.92
					c-0.188,0-0.28,0.094-0.28,0.28v15.819c0,0.188,0.093,0.28,0.28,0.28h11.13C201.017,135.554,203.128,134.819,204.692,133.349z"
					/>
				<path fill="#FFFFFF" d="M231.642,139.999c-2.59-1.33-4.609-3.22-6.055-5.67c-1.447-2.45-2.17-5.261-2.17-8.436V93.135
					c0-0.466,0.233-0.7,0.7-0.7h5.32c0.466,0,0.7,0.234,0.7,0.7v32.9c0,3.034,0.968,5.483,2.905,7.35
					c1.936,1.867,4.468,2.8,7.595,2.8c3.125,0,5.646-0.933,7.56-2.8c1.913-1.866,2.87-4.315,2.87-7.35v-32.9
					c0-0.466,0.233-0.7,0.7-0.7h5.32c0.466,0,0.7,0.234,0.7,0.7v32.759c0,3.175-0.712,5.985-2.135,8.436
					c-1.424,2.45-3.43,4.34-6.02,5.67c-2.59,1.33-5.589,1.995-8.995,1.995C237.23,141.995,234.232,141.329,231.642,139.999z"/>
				<path fill="#FFFFFF" d="M280.116,140.664v-19.67c0-0.187-0.024-0.304-0.07-0.351l-14.56-27.37c-0.047-0.093-0.07-0.21-0.07-0.35
					c0-0.326,0.186-0.49,0.56-0.49h5.74c0.42,0,0.7,0.164,0.84,0.49l10.71,20.509c0.046,0.095,0.116,0.141,0.21,0.141
					c0.093,0,0.163-0.046,0.21-0.141l10.71-20.509c0.14-0.326,0.42-0.49,0.84-0.49h5.81c0.233,0,0.408,0.082,0.525,0.245
					c0.116,0.164,0.105,0.362-0.035,0.595l-14.63,27.37c-0.047,0.047-0.07,0.164-0.07,0.351v19.67c0,0.467-0.234,0.7-0.7,0.7h-5.32
					C280.349,141.365,280.116,141.131,280.116,140.664z"/>
				<path fill="#FFFFFF" d="M355.505,99.245h-24.78c-0.188,0-0.28,0.094-0.28,0.279v15.051c0,0.187,0.093,0.279,0.28,0.279h17.01
					c0.466,0,0.7,0.234,0.7,0.7v4.41c0,0.467-0.234,0.7-0.7,0.7h-17.01c-0.188,0-0.28,0.094-0.28,0.279v20.79
					c0,0.468-0.234,0.7-0.7,0.7h-5.32c-0.467,0-0.7-0.232-0.7-0.7V94.135c0-0.466,0.233-0.7,0.7-0.7h31.08
					c0.466,0,0.7,0.234,0.7,0.7v4.41C356.206,99.012,355.971,99.245,355.505,99.245z"/>
				<path fill="#FFFFFF" d="M363.275,141.734V94.135c0-0.466,0.233-0.7,0.7-0.7h5.32c0.466,0,0.7,0.234,0.7,0.7v47.599
					c0,0.468-0.234,0.7-0.7,0.7h-5.32C363.508,142.435,363.275,142.202,363.275,141.734z"/>
				<path fill="#FFFFFF" d="M388.299,139.999c-2.59-1.33-4.597-3.22-6.02-5.67c-1.424-2.45-2.135-5.261-2.135-8.436v-17.92
					c0-3.22,0.711-6.043,2.135-8.47c1.423-2.426,3.43-4.305,6.02-5.635s5.565-1.995,8.925-1.995c3.36,0,6.323,0.654,8.89,1.96
					c2.566,1.307,4.561,3.115,5.985,5.425c1.423,2.31,2.135,4.912,2.135,7.805v0.771c0,0.467-0.234,0.7-0.7,0.7h-5.32
					c-0.467,0-0.7-0.233-0.7-0.7v-0.63c0-2.8-0.945-5.075-2.835-6.825c-1.89-1.75-4.375-2.625-7.455-2.625
					c-3.127,0-5.635,0.91-7.525,2.729c-1.89,1.82-2.835,4.247-2.835,7.28v18.34c0,3.034,0.98,5.46,2.94,7.28s4.526,2.73,7.7,2.73
					c3.08,0,5.518-0.806,7.315-2.415c1.796-1.61,2.695-3.815,2.695-6.615v-5.391c0-0.186-0.094-0.279-0.28-0.279h-9.45
					c-0.467,0-0.7-0.233-0.7-0.7v-4.34c0-0.466,0.233-0.7,0.7-0.7h15.75c0.466,0,0.7,0.234,0.7,0.7v8.89
					c0,5.367-1.529,9.497-4.585,12.391c-3.057,2.894-7.199,4.34-12.425,4.34C393.864,141.995,390.889,141.329,388.299,139.999z"/>
				<path fill="#FFFFFF" d="M470.233,93.135v4.48c0,0.467-0.234,0.699-0.7,0.699h-13.44c-0.187,0-0.279,0.095-0.279,0.28v42.14
					c0,0.468-0.234,0.7-0.7,0.7h-5.32c-0.467,0-0.7-0.232-0.7-0.7v-42.14c0-0.186-0.094-0.28-0.279-0.28h-12.811
					c-0.467,0-0.699-0.232-0.699-0.699v-4.48c0-0.466,0.232-0.7,0.699-0.7h33.53C469.999,92.434,470.233,92.668,470.233,93.135z"/>
				<path fill="#FFFFFF" d="M482.624,139.964c-2.614-1.4-4.644-3.371-6.09-5.915c-1.447-2.543-2.17-5.471-2.17-8.785v-16.66
					c0-3.313,0.723-6.229,2.17-8.75c1.446-2.52,3.476-4.479,6.09-5.88c2.613-1.399,5.623-2.1,9.03-2.1c3.453,0,6.485,0.7,9.1,2.1
					c2.613,1.4,4.644,3.36,6.09,5.88c1.446,2.521,2.17,5.438,2.17,8.75v16.66c0,3.314-0.724,6.242-2.17,8.785
					c-1.446,2.544-3.477,4.515-6.09,5.915c-2.614,1.4-5.646,2.1-9.1,2.1C488.247,142.064,485.237,141.365,482.624,139.964z
					 M499.354,133.314c1.96-1.96,2.939-4.55,2.939-7.77v-17.01c0-3.267-0.979-5.892-2.939-7.875s-4.527-2.976-7.7-2.976
					c-3.174,0-5.729,0.992-7.665,2.976c-1.938,1.983-2.905,4.608-2.905,7.875v17.01c0,3.22,0.968,5.81,2.905,7.77
					c1.936,1.96,4.491,2.94,7.665,2.94C494.827,136.254,497.395,135.274,499.354,133.314z"/>
				<path fill="#FFFFFF" d="M519.233,140.734V93.135c0-0.466,0.232-0.7,0.7-0.7h5.319c0.466,0,0.7,0.234,0.7,0.7v22.33
					c0,0.094,0.046,0.152,0.14,0.175c0.094,0.024,0.163-0.011,0.21-0.104l20.021-22.68c0.186-0.28,0.466-0.42,0.84-0.42h6.09
					c0.28,0,0.466,0.082,0.561,0.245c0.093,0.164,0.046,0.362-0.141,0.595l-16.66,19.669c-0.047,0.141-0.047,0.28,0,0.421
					l17.851,27.229c0.093,0.188,0.14,0.327,0.14,0.42c0,0.28-0.187,0.42-0.56,0.42h-6.09c-0.327,0-0.607-0.14-0.841-0.42
					l-15.119-22.89c-0.048-0.093-0.117-0.141-0.21-0.141c-0.095,0-0.164,0.024-0.21,0.07l-5.881,6.58
					c-0.094,0.188-0.14,0.304-0.14,0.35v15.75c0,0.468-0.234,0.7-0.7,0.7h-5.319C519.466,141.434,519.233,141.202,519.233,140.734z"
					/>
				<path fill="#FFFFFF" d="M594.203,98.245h-24.85c-0.188,0-0.28,0.094-0.28,0.279v15.051c0,0.187,0.093,0.279,0.28,0.279h17.08
					c0.466,0,0.699,0.234,0.699,0.7v4.41c0,0.467-0.233,0.7-0.699,0.7h-17.08c-0.188,0-0.28,0.094-0.28,0.279v15.4
					c0,0.188,0.093,0.28,0.28,0.28h24.85c0.466,0,0.7,0.233,0.7,0.7v4.409c0,0.468-0.234,0.7-0.7,0.7h-31.149
					c-0.468,0-0.7-0.232-0.7-0.7V93.135c0-0.466,0.232-0.7,0.7-0.7h31.149c0.466,0,0.7,0.234,0.7,0.7v4.41
					C594.903,98.011,594.669,98.245,594.203,98.245z"/>
				<path fill="#FFFFFF" d="M633.753,92.434h5.319c0.467,0,0.7,0.234,0.7,0.7v47.599c0,0.468-0.233,0.7-0.7,0.7h-5.109
					c-0.327,0-0.607-0.163-0.84-0.49l-21.91-35.77c-0.047-0.14-0.117-0.198-0.21-0.175c-0.095,0.023-0.141,0.104-0.141,0.245
					l0.07,35.489c0,0.468-0.234,0.7-0.7,0.7h-5.319c-0.468,0-0.7-0.232-0.7-0.7V93.135c0-0.466,0.232-0.7,0.7-0.7h5.18
					c0.326,0,0.605,0.164,0.84,0.49l21.84,35.769c0.046,0.141,0.116,0.199,0.21,0.176c0.093-0.023,0.141-0.105,0.141-0.245
					l-0.07-35.49C633.053,92.668,633.285,92.434,633.753,92.434z"/>
			</g>
		</g>
	</g>
</g>
</svg>
